solid OpenSCAD_Model
  facet normal -1.000000 -0.000000 -0.000000
    outer loop
      vertex -40.000000 -40.000000 0.000000
      vertex -40.000000 -40.000000 3.000000
      vertex -40.000000 40.000000 0.000000
    endloop
  endfacet
  facet normal -1.000000 0.000000 0.000000
    outer loop
      vertex -40.000000 40.000000 0.000000
      vertex -40.000000 -40.000000 3.000000
      vertex -40.000000 40.000000 3.000000
    endloop
  endfacet
  facet normal 0.000000 -1.000000 0.000000
    outer loop
      vertex -40.000000 -40.000000 3.000000
      vertex -40.000000 -40.000000 0.000000
      vertex 40.000000 -40.000000 0.000000
    endloop
  endfacet
  facet normal 0.000000 -1.000000 0.000000
    outer loop
      vertex 40.000000 -40.000000 3.000000
      vertex -40.000000 -40.000000 3.000000
      vertex 40.000000 -40.000000 0.000000
    endloop
  endfacet
  facet normal -0.000000 -0.000000 -1.000000
    outer loop
      vertex -40.000000 -40.000000 0.000000
      vertex -40.000000 40.000000 0.000000
      vertex 40.000000 -40.000000 0.000000
    endloop
  endfacet
  facet normal 0.000000 0.000000 -1.000000
    outer loop
      vertex 40.000000 -40.000000 0.000000
      vertex -40.000000 40.000000 0.000000
      vertex 40.000000 40.000000 0.000000
    endloop
  endfacet
  facet normal 0.000000 1.000000 0.000000
    outer loop
      vertex -40.000000 40.000000 0.000000
      vertex -40.000000 40.000000 3.000000
      vertex 40.000000 40.000000 0.000000
    endloop
  endfacet
  facet normal 0.000000 1.000000 0.000000
    outer loop
      vertex 40.000000 40.000000 0.000000
      vertex -40.000000 40.000000 3.000000
      vertex 40.000000 40.000000 3.000000
    endloop
  endfacet
  facet normal 0.000000 -0.000000 1.000000
    outer loop
      vertex 2.090569 -19.890438 3.000000
      vertex -40.000000 -40.000000 3.000000
      vertex 40.000000 -40.000000 3.000000
    endloop
  endfacet
  facet normal 0.000000 -0.000000 1.000000
    outer loop
      vertex -40.000000 40.000000 3.000000
      vertex -40.000000 -40.000000 3.000000
      vertex -19.562952 -4.158234 3.000000
    endloop
  endfacet
  facet normal 0.000000 -0.000000 1.000000
    outer loop
      vertex 6.180340 -19.021130 3.000000
      vertex 2.090569 -19.890438 3.000000
      vertex 40.000000 -40.000000 3.000000
    endloop
  endfacet
  facet normal 0.000000 0.000000 1.000000
    outer loop
      vertex -40.000000 40.000000 3.000000
      vertex -19.562952 -4.158234 3.000000
      vertex -20.000000 0.000000 3.000000
    endloop
  endfacet
  facet normal 0.000000 0.000000 1.000000
    outer loop
      vertex -40.000000 40.000000 3.000000
      vertex -20.000000 0.000000 3.000000
      vertex -19.562952 4.158234 3.000000
    endloop
  endfacet
  facet normal 0.000000 0.000000 1.000000
    outer loop
      vertex -40.000000 40.000000 3.000000
      vertex -19.562952 4.158234 3.000000
      vertex -18.270909 8.134733 3.000000
    endloop
  endfacet
  facet normal 0.000000 -0.000000 1.000000
    outer loop
      vertex 10.000000 -17.320508 3.000000
      vertex 6.180340 -19.021130 3.000000
      vertex 40.000000 -40.000000 3.000000
    endloop
  endfacet
  facet normal 0.000000 0.000000 1.000000
    outer loop
      vertex -40.000000 40.000000 3.000000
      vertex -18.270909 8.134733 3.000000
      vertex -16.180340 11.755705 3.000000
    endloop
  endfacet
  facet normal -0.000000 0.000000 1.000000
    outer loop
      vertex -10.000000 17.320508 3.000000
      vertex -40.000000 40.000000 3.000000
      vertex -13.382612 14.862897 3.000000
    endloop
  endfacet
  facet normal 0.000000 0.000000 1.000000
    outer loop
      vertex 40.000000 40.000000 3.000000
      vertex -40.000000 40.000000 3.000000
      vertex -10.000000 17.320508 3.000000
    endloop
  endfacet
  facet normal 0.000000 0.000000 1.000000
    outer loop
      vertex 18.270909 8.134733 3.000000
      vertex 19.562952 4.158234 3.000000
      vertex 40.000000 -40.000000 3.000000
    endloop
  endfacet
  facet normal 0.000000 0.000000 1.000000
    outer loop
      vertex 40.000000 40.000000 3.000000
      vertex -10.000000 17.320508 3.000000
      vertex -6.180340 19.021130 3.000000
    endloop
  endfacet
  facet normal 0.000000 -0.000000 1.000000
    outer loop
      vertex 16.180340 -11.755705 3.000000
      vertex 13.382612 -14.862897 3.000000
      vertex 40.000000 -40.000000 3.000000
    endloop
  endfacet
  facet normal 0.000000 -0.000000 1.000000
    outer loop
      vertex 18.270909 -8.134733 3.000000
      vertex 16.180340 -11.755705 3.000000
      vertex 40.000000 -40.000000 3.000000
    endloop
  endfacet
  facet normal 0.000000 0.000000 1.000000
    outer loop
      vertex 40.000000 40.000000 3.000000
      vertex -2.090569 19.890438 3.000000
      vertex 2.090569 19.890438 3.000000
    endloop
  endfacet
  facet normal 0.000000 -0.000000 1.000000
    outer loop
      vertex 13.382612 -14.862897 3.000000
      vertex 10.000000 -17.320508 3.000000
      vertex 40.000000 -40.000000 3.000000
    endloop
  endfacet
  facet normal 0.000000 0.000000 1.000000
    outer loop
      vertex 40.000000 40.000000 3.000000
      vertex 2.090569 19.890438 3.000000
      vertex 6.180340 19.021130 3.000000
    endloop
  endfacet
  facet normal 0.000000 0.000000 1.000000
    outer loop
      vertex 40.000000 40.000000 3.000000
      vertex 6.180340 19.021130 3.000000
      vertex 10.000000 17.320508 3.000000
    endloop
  endfacet
  facet normal 0.000000 -0.000000 1.000000
    outer loop
      vertex 20.000000 0.000000 3.000000
      vertex 19.562952 -4.158234 3.000000
      vertex 40.000000 -40.000000 3.000000
    endloop
  endfacet
  facet normal 0.000000 0.000000 1.000000
    outer loop
      vertex 40.000000 40.000000 3.000000
      vertex 10.000000 17.320508 3.000000
      vertex 13.382612 14.862897 3.000000
    endloop
  endfacet
  facet normal 0.000000 0.000000 1.000000
    outer loop
      vertex 19.562952 4.158234 3.000000
      vertex 20.000000 0.000000 3.000000
      vertex 40.000000 -40.000000 3.000000
    endloop
  endfacet
  facet normal 0.000000 0.000000 1.000000
    outer loop
      vertex 40.000000 40.000000 3.000000
      vertex 13.382612 14.862897 3.000000
      vertex 16.180340 11.755705 3.000000
    endloop
  endfacet
  facet normal 0.000000 0.000000 1.000000
    outer loop
      vertex 40.000000 40.000000 3.000000
      vertex 18.270909 8.134733 3.000000
      vertex 40.000000 -40.000000 3.000000
    endloop
  endfacet
  facet normal 0.000000 0.000000 1.000000
    outer loop
      vertex 40.000000 40.000000 3.000000
      vertex 16.180340 11.755705 3.000000
      vertex 18.270909 8.134733 3.000000
    endloop
  endfacet
  facet normal 0.000000 0.000000 1.000000
    outer loop
      vertex -6.180340 19.021130 3.000000
      vertex -2.090569 19.890438 3.000000
      vertex 40.000000 40.000000 3.000000
    endloop
  endfacet
  facet normal 0.000000 -0.000000 1.000000
    outer loop
      vertex 19.562952 -4.158234 3.000000
      vertex 18.270909 -8.134733 3.000000
      vertex 40.000000 -40.000000 3.000000
    endloop
  endfacet
  facet normal 0.000000 -0.000000 1.000000
    outer loop
      vertex -2.090569 -19.890438 3.000000
      vertex -40.000000 -40.000000 3.000000
      vertex 2.090569 -19.890438 3.000000
    endloop
  endfacet
  facet normal 0.000000 -0.000000 1.000000
    outer loop
      vertex -6.180340 -19.021130 3.000000
      vertex -40.000000 -40.000000 3.000000
      vertex -2.090569 -19.890438 3.000000
    endloop
  endfacet
  facet normal 0.000000 -0.000000 1.000000
    outer loop
      vertex -10.000000 -17.320508 3.000000
      vertex -40.000000 -40.000000 3.000000
      vertex -6.180340 -19.021130 3.000000
    endloop
  endfacet
  facet normal 0.000000 -0.000000 1.000000
    outer loop
      vertex -13.382612 -14.862897 3.000000
      vertex -40.000000 -40.000000 3.000000
      vertex -10.000000 -17.320508 3.000000
    endloop
  endfacet
  facet normal 0.000000 -0.000000 1.000000
    outer loop
      vertex -16.180340 -11.755705 3.000000
      vertex -40.000000 -40.000000 3.000000
      vertex -13.382612 -14.862897 3.000000
    endloop
  endfacet
  facet normal 0.000000 -0.000000 1.000000
    outer loop
      vertex -18.270909 -8.134733 3.000000
      vertex -40.000000 -40.000000 3.000000
      vertex -16.180340 -11.755705 3.000000
    endloop
  endfacet
  facet normal 0.000000 -0.000000 1.000000
    outer loop
      vertex -19.562952 -4.158234 3.000000
      vertex -40.000000 -40.000000 3.000000
      vertex -18.270909 -8.134733 3.000000
    endloop
  endfacet
  facet normal 0.000000 0.000000 1.000000
    outer loop
      vertex -16.180340 11.755705 3.000000
      vertex -13.382612 14.862897 3.000000
      vertex -40.000000 40.000000 3.000000
    endloop
  endfacet
  facet normal 1.000000 0.000000 -0.000000
    outer loop
      vertex 40.000000 -40.000000 3.000000
      vertex 40.000000 -40.000000 0.000000
      vertex 40.000000 40.000000 0.000000
    endloop
  endfacet
  facet normal 1.000000 0.000000 0.000000
    outer loop
      vertex 40.000000 40.000000 3.000000
      vertex 40.000000 -40.000000 3.000000
      vertex 40.000000 40.000000 0.000000
    endloop
  endfacet
  facet normal -0.994522 -0.104528 -0.000000
    outer loop
      vertex -20.000000 0.000000 3.000000
      vertex -19.562952 -4.158234 3.000000
      vertex -20.000000 0.000000 30.000000
    endloop
  endfacet
  facet normal -0.994522 -0.104528 0.000000
    outer loop
      vertex -19.579583 -4.000000 30.000000
      vertex -19.562952 -4.158234 3.000000
      vertex -19.562952 -4.158234 109.000000
    endloop
  endfacet
  facet normal -0.994522 -0.104528 0.000000
    outer loop
      vertex -20.000000 0.000000 30.000000
      vertex -19.562952 -4.158234 3.000000
      vertex -19.579583 -4.000000 30.000000
    endloop
  endfacet
  facet normal -0.994522 -0.104528 -0.000000
    outer loop
      vertex -19.579583 -4.000000 30.000000
      vertex -19.562952 -4.158234 109.000000
      vertex -19.579583 -4.000000 109.000000
    endloop
  endfacet
  facet normal -0.951057 -0.309017 -0.000000
    outer loop
      vertex -19.562952 -4.158234 3.000000
      vertex -18.270909 -8.134733 3.000000
      vertex -19.562952 -4.158234 109.000000
    endloop
  endfacet
  facet normal -0.951057 -0.309017 0.000000
    outer loop
      vertex -19.562952 -4.158234 109.000000
      vertex -18.270909 -8.134733 3.000000
      vertex -18.270909 -8.134733 109.000000
    endloop
  endfacet
  facet normal -0.866025 -0.500000 -0.000000
    outer loop
      vertex -18.270909 -8.134733 3.000000
      vertex -16.180340 -11.755705 3.000000
      vertex -18.270909 -8.134733 109.000000
    endloop
  endfacet
  facet normal -0.866025 -0.500000 0.000000
    outer loop
      vertex -18.270909 -8.134733 109.000000
      vertex -16.180340 -11.755705 3.000000
      vertex -16.180340 -11.755705 109.000000
    endloop
  endfacet
  facet normal -0.743145 -0.669131 -0.000000
    outer loop
      vertex -16.180340 -11.755705 3.000000
      vertex -13.382612 -14.862897 3.000000
      vertex -16.180340 -11.755705 109.000000
    endloop
  endfacet
  facet normal -0.743145 -0.669131 0.000000
    outer loop
      vertex -16.180340 -11.755705 109.000000
      vertex -13.382612 -14.862897 3.000000
      vertex -13.382612 -14.862897 109.000000
    endloop
  endfacet
  facet normal -0.587785 -0.809017 0.000000
    outer loop
      vertex -13.382612 -14.862897 109.000000
      vertex -13.382612 -14.862897 3.000000
      vertex -10.000000 -17.320508 3.000000
    endloop
  endfacet
  facet normal -0.587785 -0.809017 0.000000
    outer loop
      vertex -10.000000 -17.320508 109.000000
      vertex -13.382612 -14.862897 109.000000
      vertex -10.000000 -17.320508 3.000000
    endloop
  endfacet
  facet normal -0.406737 -0.913545 0.000000
    outer loop
      vertex -10.000000 -17.320508 109.000000
      vertex -10.000000 -17.320508 3.000000
      vertex -6.180340 -19.021130 3.000000
    endloop
  endfacet
  facet normal -0.406737 -0.913545 0.000000
    outer loop
      vertex -6.180340 -19.021130 109.000000
      vertex -10.000000 -17.320508 109.000000
      vertex -6.180340 -19.021130 3.000000
    endloop
  endfacet
  facet normal -0.207912 -0.978148 0.000000
    outer loop
      vertex -6.180340 -19.021130 109.000000
      vertex -6.180340 -19.021130 3.000000
      vertex -2.090569 -19.890438 3.000000
    endloop
  endfacet
  facet normal -0.207912 -0.978148 0.000000
    outer loop
      vertex -2.090569 -19.890438 109.000000
      vertex -6.180340 -19.021130 109.000000
      vertex -2.090569 -19.890438 3.000000
    endloop
  endfacet
  facet normal 0.000000 -1.000000 0.000000
    outer loop
      vertex -2.090569 -19.890438 109.000000
      vertex -2.090569 -19.890438 3.000000
      vertex 2.090569 -19.890438 3.000000
    endloop
  endfacet
  facet normal 0.000000 -1.000000 0.000000
    outer loop
      vertex 2.090569 -19.890438 109.000000
      vertex -2.090569 -19.890438 109.000000
      vertex 2.090569 -19.890438 3.000000
    endloop
  endfacet
  facet normal 0.207912 -0.978148 0.000000
    outer loop
      vertex 2.090569 -19.890438 109.000000
      vertex 2.090569 -19.890438 3.000000
      vertex 6.180340 -19.021130 3.000000
    endloop
  endfacet
  facet normal 0.207912 -0.978148 0.000000
    outer loop
      vertex 6.180340 -19.021130 109.000000
      vertex 2.090569 -19.890438 109.000000
      vertex 6.180340 -19.021130 3.000000
    endloop
  endfacet
  facet normal 0.406737 -0.913545 0.000000
    outer loop
      vertex 6.180340 -19.021130 109.000000
      vertex 6.180340 -19.021130 3.000000
      vertex 10.000000 -17.320508 3.000000
    endloop
  endfacet
  facet normal 0.406737 -0.913545 0.000000
    outer loop
      vertex 10.000000 -17.320508 109.000000
      vertex 6.180340 -19.021130 109.000000
      vertex 10.000000 -17.320508 3.000000
    endloop
  endfacet
  facet normal 0.587785 -0.809017 0.000000
    outer loop
      vertex 10.000000 -17.320508 109.000000
      vertex 10.000000 -17.320508 3.000000
      vertex 13.382612 -14.862897 3.000000
    endloop
  endfacet
  facet normal 0.587785 -0.809017 0.000000
    outer loop
      vertex 13.382612 -14.862897 109.000000
      vertex 10.000000 -17.320508 109.000000
      vertex 13.382612 -14.862897 3.000000
    endloop
  endfacet
  facet normal 0.743145 -0.669131 0.000000
    outer loop
      vertex 13.382612 -14.862897 109.000000
      vertex 13.382612 -14.862897 3.000000
      vertex 16.180340 -11.755705 3.000000
    endloop
  endfacet
  facet normal 0.743145 -0.669131 0.000000
    outer loop
      vertex 16.180340 -11.755705 109.000000
      vertex 13.382612 -14.862897 109.000000
      vertex 16.180340 -11.755705 3.000000
    endloop
  endfacet
  facet normal 0.866025 -0.500000 0.000000
    outer loop
      vertex 16.180340 -11.755705 109.000000
      vertex 16.180340 -11.755705 3.000000
      vertex 18.270909 -8.134733 3.000000
    endloop
  endfacet
  facet normal 0.866025 -0.500000 0.000000
    outer loop
      vertex 18.270909 -8.134733 109.000000
      vertex 16.180340 -11.755705 109.000000
      vertex 18.270909 -8.134733 3.000000
    endloop
  endfacet
  facet normal 0.951057 -0.309017 0.000000
    outer loop
      vertex 18.270909 -8.134733 109.000000
      vertex 18.270909 -8.134733 3.000000
      vertex 19.562952 -4.158234 3.000000
    endloop
  endfacet
  facet normal 0.951057 -0.309017 0.000000
    outer loop
      vertex 19.562952 -4.158234 109.000000
      vertex 18.270909 -8.134733 109.000000
      vertex 19.562952 -4.158234 3.000000
    endloop
  endfacet
  facet normal 0.994522 -0.104528 0.000000
    outer loop
      vertex 19.579583 -4.000000 30.000000
      vertex 19.562952 -4.158234 3.000000
      vertex 20.000000 0.000000 3.000000
    endloop
  endfacet
  facet normal 0.994522 -0.104528 0.000000
    outer loop
      vertex 19.579583 -4.000000 30.000000
      vertex 19.579583 -4.000000 109.000000
      vertex 19.562952 -4.158234 109.000000
    endloop
  endfacet
  facet normal 0.994522 -0.104528 0.000000
    outer loop
      vertex 19.562952 -4.158234 109.000000
      vertex 19.562952 -4.158234 3.000000
      vertex 19.579583 -4.000000 30.000000
    endloop
  endfacet
  facet normal 0.994522 -0.104528 0.000000
    outer loop
      vertex 20.000000 0.000000 30.000000
      vertex 19.579583 -4.000000 30.000000
      vertex 20.000000 0.000000 3.000000
    endloop
  endfacet
  facet normal 0.994522 0.104528 0.000000
    outer loop
      vertex 19.579583 4.000000 30.000000
      vertex 19.562952 4.158234 3.000000
      vertex 19.562952 4.158234 109.000000
    endloop
  endfacet
  facet normal 0.994522 0.104528 0.000000
    outer loop
      vertex 19.579583 4.000000 30.000000
      vertex 20.000000 0.000000 30.000000
      vertex 20.000000 0.000000 3.000000
    endloop
  endfacet
  facet normal 0.994522 0.104528 0.000000
    outer loop
      vertex 20.000000 0.000000 3.000000
      vertex 19.562952 4.158234 3.000000
      vertex 19.579583 4.000000 30.000000
    endloop
  endfacet
  facet normal 0.994522 0.104528 -0.000000
    outer loop
      vertex 19.579583 4.000000 109.000000
      vertex 19.579583 4.000000 30.000000
      vertex 19.562952 4.158234 109.000000
    endloop
  endfacet
  facet normal 0.951057 0.309017 0.000000
    outer loop
      vertex 19.562952 4.158234 3.000000
      vertex 18.270909 8.134733 3.000000
      vertex 18.270909 8.134733 109.000000
    endloop
  endfacet
  facet normal 0.951057 0.309017 -0.000000
    outer loop
      vertex 19.562952 4.158234 109.000000
      vertex 19.562952 4.158234 3.000000
      vertex 18.270909 8.134733 109.000000
    endloop
  endfacet
  facet normal 0.866025 0.500000 0.000000
    outer loop
      vertex 18.270909 8.134733 3.000000
      vertex 16.180340 11.755705 3.000000
      vertex 16.180340 11.755705 109.000000
    endloop
  endfacet
  facet normal 0.866025 0.500000 -0.000000
    outer loop
      vertex 18.270909 8.134733 109.000000
      vertex 18.270909 8.134733 3.000000
      vertex 16.180340 11.755705 109.000000
    endloop
  endfacet
  facet normal 0.743145 0.669131 0.000000
    outer loop
      vertex 16.180340 11.755705 3.000000
      vertex 13.382612 14.862897 3.000000
      vertex 13.382612 14.862897 109.000000
    endloop
  endfacet
  facet normal 0.743145 0.669131 -0.000000
    outer loop
      vertex 16.180340 11.755705 109.000000
      vertex 16.180340 11.755705 3.000000
      vertex 13.382612 14.862897 109.000000
    endloop
  endfacet
  facet normal 0.587785 0.809017 0.000000
    outer loop
      vertex 10.000000 17.320508 3.000000
      vertex 10.000000 17.320508 109.000000
      vertex 13.382612 14.862897 3.000000
    endloop
  endfacet
  facet normal 0.587785 0.809017 0.000000
    outer loop
      vertex 13.382612 14.862897 3.000000
      vertex 10.000000 17.320508 109.000000
      vertex 13.382612 14.862897 109.000000
    endloop
  endfacet
  facet normal 0.406737 0.913545 0.000000
    outer loop
      vertex 6.180340 19.021130 3.000000
      vertex 6.180340 19.021130 109.000000
      vertex 10.000000 17.320508 3.000000
    endloop
  endfacet
  facet normal 0.406737 0.913545 0.000000
    outer loop
      vertex 10.000000 17.320508 3.000000
      vertex 6.180340 19.021130 109.000000
      vertex 10.000000 17.320508 109.000000
    endloop
  endfacet
  facet normal 0.207912 0.978148 0.000000
    outer loop
      vertex 2.090569 19.890438 3.000000
      vertex 2.090569 19.890438 109.000000
      vertex 6.180340 19.021130 3.000000
    endloop
  endfacet
  facet normal 0.207912 0.978148 0.000000
    outer loop
      vertex 6.180340 19.021130 3.000000
      vertex 2.090569 19.890438 109.000000
      vertex 6.180340 19.021130 109.000000
    endloop
  endfacet
  facet normal 0.000000 1.000000 0.000000
    outer loop
      vertex -2.090569 19.890438 3.000000
      vertex -2.090569 19.890438 109.000000
      vertex 2.090569 19.890438 3.000000
    endloop
  endfacet
  facet normal 0.000000 1.000000 0.000000
    outer loop
      vertex 2.090569 19.890438 3.000000
      vertex -2.090569 19.890438 109.000000
      vertex 2.090569 19.890438 109.000000
    endloop
  endfacet
  facet normal -0.207912 0.978148 0.000000
    outer loop
      vertex -6.180340 19.021130 3.000000
      vertex -6.180340 19.021130 109.000000
      vertex -2.090569 19.890438 3.000000
    endloop
  endfacet
  facet normal -0.207912 0.978148 0.000000
    outer loop
      vertex -2.090569 19.890438 3.000000
      vertex -6.180340 19.021130 109.000000
      vertex -2.090569 19.890438 109.000000
    endloop
  endfacet
  facet normal -0.406737 0.913545 0.000000
    outer loop
      vertex -10.000000 17.320508 3.000000
      vertex -10.000000 17.320508 109.000000
      vertex -6.180340 19.021130 3.000000
    endloop
  endfacet
  facet normal -0.406737 0.913545 0.000000
    outer loop
      vertex -6.180340 19.021130 3.000000
      vertex -10.000000 17.320508 109.000000
      vertex -6.180340 19.021130 109.000000
    endloop
  endfacet
  facet normal -0.587785 0.809017 0.000000
    outer loop
      vertex -13.382612 14.862897 3.000000
      vertex -13.382612 14.862897 109.000000
      vertex -10.000000 17.320508 3.000000
    endloop
  endfacet
  facet normal -0.587785 0.809017 0.000000
    outer loop
      vertex -10.000000 17.320508 3.000000
      vertex -13.382612 14.862897 109.000000
      vertex -10.000000 17.320508 109.000000
    endloop
  endfacet
  facet normal -0.743145 0.669131 0.000000
    outer loop
      vertex -16.180340 11.755705 3.000000
      vertex -16.180340 11.755705 109.000000
      vertex -13.382612 14.862897 3.000000
    endloop
  endfacet
  facet normal -0.743145 0.669131 0.000000
    outer loop
      vertex -13.382612 14.862897 3.000000
      vertex -16.180340 11.755705 109.000000
      vertex -13.382612 14.862897 109.000000
    endloop
  endfacet
  facet normal -0.866025 0.500000 0.000000
    outer loop
      vertex -18.270909 8.134733 3.000000
      vertex -18.270909 8.134733 109.000000
      vertex -16.180340 11.755705 3.000000
    endloop
  endfacet
  facet normal -0.866025 0.500000 0.000000
    outer loop
      vertex -16.180340 11.755705 3.000000
      vertex -18.270909 8.134733 109.000000
      vertex -16.180340 11.755705 109.000000
    endloop
  endfacet
  facet normal -0.951057 0.309017 0.000000
    outer loop
      vertex -19.562952 4.158234 3.000000
      vertex -19.562952 4.158234 109.000000
      vertex -18.270909 8.134733 3.000000
    endloop
  endfacet
  facet normal -0.951057 0.309017 0.000000
    outer loop
      vertex -18.270909 8.134733 3.000000
      vertex -19.562952 4.158234 109.000000
      vertex -18.270909 8.134733 109.000000
    endloop
  endfacet
  facet normal -0.994522 0.104528 0.000000
    outer loop
      vertex -20.000000 0.000000 3.000000
      vertex -20.000000 0.000000 30.000000
      vertex -19.562952 4.158234 3.000000
    endloop
  endfacet
  facet normal -0.994522 0.104528 0.000000
    outer loop
      vertex -19.562952 4.158234 3.000000
      vertex -20.000000 0.000000 30.000000
      vertex -19.579583 4.000000 30.000000
    endloop
  endfacet
  facet normal -0.994522 0.104528 0.000000
    outer loop
      vertex -19.562952 4.158234 3.000000
      vertex -19.579583 4.000000 30.000000
      vertex -19.579583 4.000000 109.000000
    endloop
  endfacet
  facet normal -0.994522 0.104528 0.000000
    outer loop
      vertex -19.562952 4.158234 3.000000
      vertex -19.579583 4.000000 109.000000
      vertex -19.562952 4.158234 109.000000
    endloop
  endfacet
  facet normal -0.000000 0.000000 1.000000
    outer loop
      vertex -16.628509 3.534499 30.000000
      vertex -16.477259 4.000000 30.000000
      vertex -19.579583 -4.000000 30.000000
    endloop
  endfacet
  facet normal 0.000000 0.000000 1.000000
    outer loop
      vertex -19.579583 -4.000000 30.000000
      vertex -16.477259 -4.000000 30.000000
      vertex -16.628509 -3.534499 30.000000
    endloop
  endfacet
  facet normal 0.000000 -0.000000 1.000000
    outer loop
      vertex -17.000000 0.000000 30.000000
      vertex -19.579583 -4.000000 30.000000
      vertex -16.628509 -3.534499 30.000000
    endloop
  endfacet
  facet normal -0.000000 0.000000 1.000000
    outer loop
      vertex -17.000000 0.000000 30.000000
      vertex -16.628509 3.534499 30.000000
      vertex -19.579583 -4.000000 30.000000
    endloop
  endfacet
  facet normal 0.000000 0.000000 1.000000
    outer loop
      vertex -16.477259 4.000000 30.000000
      vertex -19.579583 4.000000 30.000000
      vertex -19.579583 -4.000000 30.000000
    endloop
  endfacet
  facet normal 0.000000 0.000000 1.000000
    outer loop
      vertex -19.579583 4.000000 30.000000
      vertex -20.000000 0.000000 30.000000
      vertex -19.579583 -4.000000 30.000000
    endloop
  endfacet
  facet normal -0.000000 1.000000 0.000000
    outer loop
      vertex -16.477259 -4.000000 30.000000
      vertex -19.579583 -4.000000 30.000000
      vertex -16.477259 -4.000000 111.000000
    endloop
  endfacet
  facet normal 0.000000 1.000000 0.000000
    outer loop
      vertex -16.477259 -4.000000 111.000000
      vertex -19.579583 -4.000000 30.000000
      vertex -19.579583 -4.000000 109.000000
    endloop
  endfacet
  facet normal 0.000000 1.000000 0.000000
    outer loop
      vertex -16.477259 -4.000000 111.000000
      vertex -19.579583 -4.000000 109.000000
      vertex -19.655689 -4.000000 109.076106
    endloop
  endfacet
  facet normal 0.000000 1.000000 0.000000
    outer loop
      vertex -16.477259 -4.000000 111.000000
      vertex -19.655689 -4.000000 109.076106
      vertex -21.579583 -4.000000 111.000000
    endloop
  endfacet
  facet normal -0.705162 -0.074116 -0.705162
    outer loop
      vertex -19.562952 -4.158234 109.000000
      vertex -19.655689 -4.000000 109.076106
      vertex -19.579583 -4.000000 109.000000
    endloop
  endfacet
  facet normal -0.705162 -0.074116 -0.705162
    outer loop
      vertex -21.579583 -4.000000 111.000000
      vertex -19.655689 -4.000000 109.076106
      vertex -21.519247 -4.574057 111.000000
    endloop
  endfacet
  facet normal -0.705162 -0.074116 -0.705162
    outer loop
      vertex -21.519247 -4.574057 111.000000
      vertex -19.655689 -4.000000 109.076106
      vertex -19.562952 -4.158234 109.000000
    endloop
  endfacet
  facet normal -0.674343 -0.219107 -0.705162
    outer loop
      vertex -18.270909 -8.134733 109.000000
      vertex -21.519247 -4.574057 111.000000
      vertex -19.562952 -4.158234 109.000000
    endloop
  endfacet
  facet normal -0.674343 -0.219107 -0.705162
    outer loop
      vertex -20.098000 -8.948206 111.000000
      vertex -21.519247 -4.574057 111.000000
      vertex -18.270909 -8.134733 109.000000
    endloop
  endfacet
  facet normal -0.614052 -0.354523 -0.705162
    outer loop
      vertex -16.180340 -11.755705 109.000000
      vertex -20.098000 -8.948206 111.000000
      vertex -18.270909 -8.134733 109.000000
    endloop
  endfacet
  facet normal -0.614052 -0.354523 -0.705162
    outer loop
      vertex -17.798374 -12.931276 111.000000
      vertex -20.098000 -8.948206 111.000000
      vertex -16.180340 -11.755705 109.000000
    endloop
  endfacet
  facet normal -0.526924 -0.474444 -0.705162
    outer loop
      vertex -13.382612 -14.862897 109.000000
      vertex -17.798374 -12.931276 111.000000
      vertex -16.180340 -11.755705 109.000000
    endloop
  endfacet
  facet normal -0.526924 -0.474445 -0.705162
    outer loop
      vertex -14.720873 -16.349186 111.000000
      vertex -17.798374 -12.931276 111.000000
      vertex -13.382612 -14.862897 109.000000
    endloop
  endfacet
  facet normal -0.416767 -0.573631 -0.705162
    outer loop
      vertex -10.000000 -17.320508 109.000000
      vertex -14.720873 -16.349186 111.000000
      vertex -13.382612 -14.862897 109.000000
    endloop
  endfacet
  facet normal -0.416767 -0.573630 -0.705162
    outer loop
      vertex -11.000000 -19.052559 111.000000
      vertex -14.720873 -16.349186 111.000000
      vertex -10.000000 -17.320508 109.000000
    endloop
  endfacet
  facet normal -0.288395 -0.647746 -0.705162
    outer loop
      vertex -6.180340 -19.021130 109.000000
      vertex -11.000000 -19.052559 111.000000
      vertex -10.000000 -17.320508 109.000000
    endloop
  endfacet
  facet normal -0.288395 -0.647746 -0.705162
    outer loop
      vertex -6.798374 -20.923243 111.000000
      vertex -11.000000 -19.052559 111.000000
      vertex -6.180340 -19.021130 109.000000
    endloop
  endfacet
  facet normal -0.147419 -0.693552 -0.705162
    outer loop
      vertex -2.090569 -19.890438 109.000000
      vertex -6.798374 -20.923243 111.000000
      vertex -6.180340 -19.021130 109.000000
    endloop
  endfacet
  facet normal -0.147419 -0.693552 -0.705162
    outer loop
      vertex -2.299626 -21.879482 111.000000
      vertex -6.798374 -20.923243 111.000000
      vertex -2.090569 -19.890438 109.000000
    endloop
  endfacet
  facet normal 0.000000 -0.709046 -0.705162
    outer loop
      vertex 2.299626 -21.879482 111.000000
      vertex -2.299626 -21.879482 111.000000
      vertex -2.090569 -19.890438 109.000000
    endloop
  endfacet
  facet normal 0.000000 -0.709046 -0.705162
    outer loop
      vertex 2.090569 -19.890438 109.000000
      vertex 2.299626 -21.879482 111.000000
      vertex -2.090569 -19.890438 109.000000
    endloop
  endfacet
  facet normal 0.147419 -0.693552 -0.705162
    outer loop
      vertex 2.299626 -21.879482 111.000000
      vertex 2.090569 -19.890438 109.000000
      vertex 6.180340 -19.021130 109.000000
    endloop
  endfacet
  facet normal 0.147419 -0.693552 -0.705162
    outer loop
      vertex 6.798374 -20.923243 111.000000
      vertex 2.299626 -21.879482 111.000000
      vertex 6.180340 -19.021130 109.000000
    endloop
  endfacet
  facet normal 0.288395 -0.647746 -0.705162
    outer loop
      vertex 6.798374 -20.923243 111.000000
      vertex 6.180340 -19.021130 109.000000
      vertex 10.000000 -17.320508 109.000000
    endloop
  endfacet
  facet normal 0.288395 -0.647746 -0.705162
    outer loop
      vertex 11.000000 -19.052559 111.000000
      vertex 6.798374 -20.923243 111.000000
      vertex 10.000000 -17.320508 109.000000
    endloop
  endfacet
  facet normal 0.416767 -0.573630 -0.705162
    outer loop
      vertex 11.000000 -19.052559 111.000000
      vertex 10.000000 -17.320508 109.000000
      vertex 13.382612 -14.862897 109.000000
    endloop
  endfacet
  facet normal 0.416767 -0.573631 -0.705162
    outer loop
      vertex 14.720873 -16.349186 111.000000
      vertex 11.000000 -19.052559 111.000000
      vertex 13.382612 -14.862897 109.000000
    endloop
  endfacet
  facet normal 0.526924 -0.474445 -0.705162
    outer loop
      vertex 14.720873 -16.349186 111.000000
      vertex 13.382612 -14.862897 109.000000
      vertex 16.180340 -11.755705 109.000000
    endloop
  endfacet
  facet normal 0.526924 -0.474445 -0.705162
    outer loop
      vertex 17.798374 -12.931276 111.000000
      vertex 14.720873 -16.349186 111.000000
      vertex 16.180340 -11.755705 109.000000
    endloop
  endfacet
  facet normal 0.614052 -0.354523 -0.705162
    outer loop
      vertex 17.798374 -12.931276 111.000000
      vertex 16.180340 -11.755705 109.000000
      vertex 18.270909 -8.134733 109.000000
    endloop
  endfacet
  facet normal 0.614052 -0.354523 -0.705162
    outer loop
      vertex 20.098000 -8.948206 111.000000
      vertex 17.798374 -12.931276 111.000000
      vertex 18.270909 -8.134733 109.000000
    endloop
  endfacet
  facet normal 0.674343 -0.219107 -0.705162
    outer loop
      vertex 20.098000 -8.948206 111.000000
      vertex 18.270909 -8.134733 109.000000
      vertex 19.562952 -4.158234 109.000000
    endloop
  endfacet
  facet normal 0.674343 -0.219107 -0.705162
    outer loop
      vertex 20.098000 -8.948206 111.000000
      vertex 19.562952 -4.158234 109.000000
      vertex 21.519247 -4.574057 111.000000
    endloop
  endfacet
  facet normal 0.705162 -0.074116 -0.705162
    outer loop
      vertex 21.519247 -4.574057 111.000000
      vertex 19.562952 -4.158234 109.000000
      vertex 19.579583 -4.000000 109.000000
    endloop
  endfacet
  facet normal 0.705162 -0.074116 -0.705162
    outer loop
      vertex 21.328577 -4.000000 110.748994
      vertex 21.519247 -4.574057 111.000000
      vertex 19.579583 -4.000000 109.000000
    endloop
  endfacet
  facet normal 0.000000 1.000000 0.000000
    outer loop
      vertex 21.579583 -4.000000 111.000000
      vertex 21.328577 -4.000000 110.748994
      vertex 16.477259 -4.000000 111.000000
    endloop
  endfacet
  facet normal 0.000000 1.000000 0.000000
    outer loop
      vertex 16.477259 -4.000000 111.000000
      vertex 21.328577 -4.000000 110.748994
      vertex 19.579583 -4.000000 109.000000
    endloop
  endfacet
  facet normal -0.000000 1.000000 0.000000
    outer loop
      vertex 19.579583 -4.000000 109.000000
      vertex 19.579583 -4.000000 30.000000
      vertex 16.477259 -4.000000 111.000000
    endloop
  endfacet
  facet normal 0.000000 1.000000 -0.000000
    outer loop
      vertex 16.477259 -4.000000 111.000000
      vertex 19.579583 -4.000000 30.000000
      vertex 16.477259 -4.000000 30.000000
    endloop
  endfacet
  facet normal 0.000000 0.000000 1.000000
    outer loop
      vertex 19.579583 -4.000000 30.000000
      vertex 20.000000 0.000000 30.000000
      vertex 19.579583 4.000000 30.000000
    endloop
  endfacet
  facet normal 0.000000 0.000000 1.000000
    outer loop
      vertex 16.628509 3.534499 30.000000
      vertex 19.579583 -4.000000 30.000000
      vertex 16.477259 4.000000 30.000000
    endloop
  endfacet
  facet normal 0.000000 0.000000 1.000000
    outer loop
      vertex 16.477259 4.000000 30.000000
      vertex 19.579583 -4.000000 30.000000
      vertex 19.579583 4.000000 30.000000
    endloop
  endfacet
  facet normal 0.000000 0.000000 1.000000
    outer loop
      vertex 17.000000 0.000000 30.000000
      vertex 19.579583 -4.000000 30.000000
      vertex 16.628509 3.534499 30.000000
    endloop
  endfacet
  facet normal 0.000000 0.000000 1.000000
    outer loop
      vertex 16.628509 -3.534499 30.000000
      vertex 19.579583 -4.000000 30.000000
      vertex 17.000000 0.000000 30.000000
    endloop
  endfacet
  facet normal 0.000000 0.000000 1.000000
    outer loop
      vertex 16.477259 -4.000000 30.000000
      vertex 19.579583 -4.000000 30.000000
      vertex 16.628509 -3.534499 30.000000
    endloop
  endfacet
  facet normal 0.000000 -0.000000 0.000000
    outer loop
      vertex 21.579583 4.000000 111.000000
      vertex 19.579583 4.000000 109.000000
      vertex 19.655689 4.000000 109.076106
    endloop
  endfacet
  facet normal 0.000000 -1.000000 0.000000
    outer loop
      vertex 19.579583 4.000000 30.000000
      vertex 19.579583 4.000000 109.000000
      vertex 16.477259 4.000000 111.000000
    endloop
  endfacet
  facet normal 0.000000 -1.000000 0.000000
    outer loop
      vertex 21.579583 4.000000 111.000000
      vertex 16.477259 4.000000 111.000000
      vertex 19.579583 4.000000 109.000000
    endloop
  endfacet
  facet normal 0.000000 -1.000000 0.000000
    outer loop
      vertex 16.477259 4.000000 111.000000
      vertex 16.477259 4.000000 30.000000
      vertex 19.579583 4.000000 30.000000
    endloop
  endfacet
  facet normal 0.705162 0.074116 -0.705162
    outer loop
      vertex 19.579583 4.000000 109.000000
      vertex 19.562952 4.158234 109.000000
      vertex 19.655689 4.000000 109.076106
    endloop
  endfacet
  facet normal 0.674343 0.219107 -0.705162
    outer loop
      vertex 19.562952 4.158234 109.000000
      vertex 18.270909 8.134733 109.000000
      vertex 21.519247 4.574057 111.000000
    endloop
  endfacet
  facet normal 0.705162 0.074116 -0.705162
    outer loop
      vertex 19.655689 4.000000 109.076106
      vertex 19.562952 4.158234 109.000000
      vertex 21.519247 4.574057 111.000000
    endloop
  endfacet
  facet normal 0.705162 0.074116 -0.705162
    outer loop
      vertex 21.579583 4.000000 111.000000
      vertex 19.655689 4.000000 109.076106
      vertex 21.519247 4.574057 111.000000
    endloop
  endfacet
  facet normal 0.614052 0.354523 -0.705162
    outer loop
      vertex 18.270909 8.134733 109.000000
      vertex 16.180340 11.755705 109.000000
      vertex 20.098000 8.948206 111.000000
    endloop
  endfacet
  facet normal 0.674343 0.219107 -0.705162
    outer loop
      vertex 21.519247 4.574057 111.000000
      vertex 18.270909 8.134733 109.000000
      vertex 20.098000 8.948206 111.000000
    endloop
  endfacet
  facet normal 0.526924 0.474444 -0.705162
    outer loop
      vertex 16.180340 11.755705 109.000000
      vertex 13.382612 14.862897 109.000000
      vertex 17.798374 12.931276 111.000000
    endloop
  endfacet
  facet normal 0.614052 0.354523 -0.705162
    outer loop
      vertex 20.098000 8.948206 111.000000
      vertex 16.180340 11.755705 109.000000
      vertex 17.798374 12.931276 111.000000
    endloop
  endfacet
  facet normal 0.416767 0.573631 -0.705162
    outer loop
      vertex 13.382612 14.862897 109.000000
      vertex 10.000000 17.320508 109.000000
      vertex 14.720873 16.349186 111.000000
    endloop
  endfacet
  facet normal 0.526924 0.474445 -0.705162
    outer loop
      vertex 17.798374 12.931276 111.000000
      vertex 13.382612 14.862897 109.000000
      vertex 14.720873 16.349186 111.000000
    endloop
  endfacet
  facet normal 0.288395 0.647746 -0.705162
    outer loop
      vertex 10.000000 17.320508 109.000000
      vertex 6.180340 19.021130 109.000000
      vertex 11.000000 19.052559 111.000000
    endloop
  endfacet
  facet normal 0.416767 0.573630 -0.705162
    outer loop
      vertex 14.720873 16.349186 111.000000
      vertex 10.000000 17.320508 109.000000
      vertex 11.000000 19.052559 111.000000
    endloop
  endfacet
  facet normal 0.147419 0.693552 -0.705162
    outer loop
      vertex 6.180340 19.021130 109.000000
      vertex 2.090569 19.890438 109.000000
      vertex 6.798374 20.923243 111.000000
    endloop
  endfacet
  facet normal 0.288395 0.647746 -0.705162
    outer loop
      vertex 11.000000 19.052559 111.000000
      vertex 6.180340 19.021130 109.000000
      vertex 6.798374 20.923243 111.000000
    endloop
  endfacet
  facet normal 0.000000 0.709046 -0.705162
    outer loop
      vertex -2.299626 21.879482 111.000000
      vertex 2.299626 21.879482 111.000000
      vertex -2.090569 19.890438 109.000000
    endloop
  endfacet
  facet normal 0.000000 0.709046 -0.705162
    outer loop
      vertex -2.090569 19.890438 109.000000
      vertex 2.299626 21.879482 111.000000
      vertex 2.090569 19.890438 109.000000
    endloop
  endfacet
  facet normal 0.147419 0.693552 -0.705162
    outer loop
      vertex 6.798374 20.923243 111.000000
      vertex 2.090569 19.890438 109.000000
      vertex 2.299626 21.879482 111.000000
    endloop
  endfacet
  facet normal -0.147419 0.693552 -0.705162
    outer loop
      vertex -2.090569 19.890438 109.000000
      vertex -6.180340 19.021130 109.000000
      vertex -2.299626 21.879482 111.000000
    endloop
  endfacet
  facet normal -0.288395 0.647746 -0.705162
    outer loop
      vertex -6.180340 19.021130 109.000000
      vertex -10.000000 17.320508 109.000000
      vertex -6.798374 20.923243 111.000000
    endloop
  endfacet
  facet normal -0.147419 0.693552 -0.705162
    outer loop
      vertex -6.180340 19.021130 109.000000
      vertex -6.798374 20.923243 111.000000
      vertex -2.299626 21.879482 111.000000
    endloop
  endfacet
  facet normal -0.416767 0.573630 -0.705162
    outer loop
      vertex -10.000000 17.320508 109.000000
      vertex -13.382612 14.862897 109.000000
      vertex -11.000000 19.052559 111.000000
    endloop
  endfacet
  facet normal -0.288395 0.647746 -0.705162
    outer loop
      vertex -10.000000 17.320508 109.000000
      vertex -11.000000 19.052559 111.000000
      vertex -6.798374 20.923243 111.000000
    endloop
  endfacet
  facet normal -0.526924 0.474445 -0.705162
    outer loop
      vertex -13.382612 14.862897 109.000000
      vertex -16.180340 11.755705 109.000000
      vertex -14.720873 16.349186 111.000000
    endloop
  endfacet
  facet normal -0.416767 0.573631 -0.705162
    outer loop
      vertex -13.382612 14.862897 109.000000
      vertex -14.720873 16.349186 111.000000
      vertex -11.000000 19.052559 111.000000
    endloop
  endfacet
  facet normal -0.614052 0.354523 -0.705162
    outer loop
      vertex -16.180340 11.755705 109.000000
      vertex -18.270909 8.134733 109.000000
      vertex -17.798374 12.931276 111.000000
    endloop
  endfacet
  facet normal -0.526924 0.474445 -0.705162
    outer loop
      vertex -16.180340 11.755705 109.000000
      vertex -17.798374 12.931276 111.000000
      vertex -14.720873 16.349186 111.000000
    endloop
  endfacet
  facet normal -0.674343 0.219107 -0.705162
    outer loop
      vertex -19.562952 4.158234 109.000000
      vertex -20.098000 8.948206 111.000000
      vertex -18.270909 8.134733 109.000000
    endloop
  endfacet
  facet normal -0.614052 0.354523 -0.705162
    outer loop
      vertex -18.270909 8.134733 109.000000
      vertex -20.098000 8.948206 111.000000
      vertex -17.798374 12.931276 111.000000
    endloop
  endfacet
  facet normal -0.705162 0.074116 -0.705162
    outer loop
      vertex -21.519247 4.574057 111.000000
      vertex -19.562952 4.158234 109.000000
      vertex -21.328577 4.000000 110.748994
    endloop
  endfacet
  facet normal -0.705162 0.074116 -0.705162
    outer loop
      vertex -21.328577 4.000000 110.748994
      vertex -19.562952 4.158234 109.000000
      vertex -19.579583 4.000000 109.000000
    endloop
  endfacet
  facet normal -0.674343 0.219107 -0.705162
    outer loop
      vertex -19.562952 4.158234 109.000000
      vertex -21.519247 4.574057 111.000000
      vertex -20.098000 8.948206 111.000000
    endloop
  endfacet
  facet normal 0.000000 -1.000000 0.000000
    outer loop
      vertex -16.477259 4.000000 30.000000
      vertex -19.579583 4.000000 109.000000
      vertex -19.579583 4.000000 30.000000
    endloop
  endfacet
  facet normal 0.000000 -1.000000 0.000000
    outer loop
      vertex -16.477259 4.000000 111.000000
      vertex -19.579583 4.000000 109.000000
      vertex -16.477259 4.000000 30.000000
    endloop
  endfacet
  facet normal -0.000000 -1.000000 0.000000
    outer loop
      vertex -21.328577 4.000000 110.748994
      vertex -19.579583 4.000000 109.000000
      vertex -16.477259 4.000000 111.000000
    endloop
  endfacet
  facet normal 0.000000 -1.000000 -0.000000
    outer loop
      vertex -21.328577 4.000000 110.748994
      vertex -16.477259 4.000000 111.000000
      vertex -21.579583 4.000000 111.000000
    endloop
  endfacet
  facet normal 0.951057 -0.309017 0.000000
    outer loop
      vertex -15.530273 6.914523 5.000000
      vertex -15.530273 6.914523 111.000000
      vertex -16.477259 4.000000 111.000000
    endloop
  endfacet
  facet normal 0.951057 -0.309017 -0.000000
    outer loop
      vertex -16.628509 3.534499 30.000000
      vertex -15.530273 6.914523 5.000000
      vertex -16.477259 4.000000 30.000000
    endloop
  endfacet
  facet normal 0.951057 -0.309017 0.000000
    outer loop
      vertex -16.477259 4.000000 30.000000
      vertex -15.530273 6.914523 5.000000
      vertex -16.477259 4.000000 111.000000
    endloop
  endfacet
  facet normal 0.951057 -0.309017 0.000000
    outer loop
      vertex -16.628509 3.534499 5.000000
      vertex -15.530273 6.914523 5.000000
      vertex -16.628509 3.534499 30.000000
    endloop
  endfacet
  facet normal 0.994522 -0.104529 0.000000
    outer loop
      vertex -16.628509 3.534499 5.000000
      vertex -16.628509 3.534499 30.000000
      vertex -17.000000 0.000000 30.000000
    endloop
  endfacet
  facet normal 0.994522 -0.104529 0.000000
    outer loop
      vertex -17.000000 0.000000 5.000000
      vertex -16.628509 3.534499 5.000000
      vertex -17.000000 0.000000 30.000000
    endloop
  endfacet
  facet normal 0.994522 0.104529 0.000000
    outer loop
      vertex -17.000000 0.000000 30.000000
      vertex -16.628509 -3.534499 30.000000
      vertex -16.628509 -3.534499 5.000000
    endloop
  endfacet
  facet normal 0.994522 0.104529 0.000000
    outer loop
      vertex -17.000000 0.000000 5.000000
      vertex -17.000000 0.000000 30.000000
      vertex -16.628509 -3.534499 5.000000
    endloop
  endfacet
  facet normal 0.951057 0.309017 0.000000
    outer loop
      vertex -15.530273 -6.914523 111.000000
      vertex -16.477259 -4.000000 30.000000
      vertex -16.477259 -4.000000 111.000000
    endloop
  endfacet
  facet normal 0.951057 0.309017 0.000000
    outer loop
      vertex -15.530273 -6.914523 5.000000
      vertex -16.477259 -4.000000 30.000000
      vertex -15.530273 -6.914523 111.000000
    endloop
  endfacet
  facet normal 0.951057 0.309017 -0.000000
    outer loop
      vertex -16.628509 -3.534499 30.000000
      vertex -16.477259 -4.000000 30.000000
      vertex -15.530273 -6.914523 5.000000
    endloop
  endfacet
  facet normal 0.951057 0.309017 0.000000
    outer loop
      vertex -16.628509 -3.534499 5.000000
      vertex -16.628509 -3.534499 30.000000
      vertex -15.530273 -6.914523 5.000000
    endloop
  endfacet
  facet normal 0.000000 0.000000 1.000000
    outer loop
      vertex -16.477259 -4.000000 111.000000
      vertex -21.579583 -4.000000 111.000000
      vertex -21.519247 -4.574057 111.000000
    endloop
  endfacet
  facet normal 0.000000 0.000000 1.000000
    outer loop
      vertex -17.798374 -12.931276 111.000000
      vertex -16.477259 -4.000000 111.000000
      vertex -20.098000 -8.948206 111.000000
    endloop
  endfacet
  facet normal 0.000000 0.000000 1.000000
    outer loop
      vertex -20.098000 -8.948206 111.000000
      vertex -16.477259 -4.000000 111.000000
      vertex -21.519247 -4.574057 111.000000
    endloop
  endfacet
  facet normal 0.000000 0.000000 1.000000
    outer loop
      vertex -14.720873 -16.349186 111.000000
      vertex -16.477259 -4.000000 111.000000
      vertex -17.798374 -12.931276 111.000000
    endloop
  endfacet
  facet normal -0.000000 -0.000000 1.000000
    outer loop
      vertex -15.530273 -6.914523 111.000000
      vertex -16.477259 -4.000000 111.000000
      vertex -14.720873 -16.349186 111.000000
    endloop
  endfacet
  facet normal -0.000000 -0.000000 1.000000
    outer loop
      vertex -13.753289 -9.992349 111.000000
      vertex -15.530273 -6.914523 111.000000
      vertex -11.000000 -19.052559 111.000000
    endloop
  endfacet
  facet normal -0.000000 -0.000000 1.000000
    outer loop
      vertex -11.375220 -12.633462 111.000000
      vertex -13.753289 -9.992349 111.000000
      vertex -6.798374 -20.923243 111.000000
    endloop
  endfacet
  facet normal -0.000000 -0.000000 1.000000
    outer loop
      vertex -5.253289 -16.167961 111.000000
      vertex -8.500000 -14.722432 111.000000
      vertex -2.299626 -21.879482 111.000000
    endloop
  endfacet
  facet normal -0.000000 -0.000000 1.000000
    outer loop
      vertex -1.776984 -16.906872 111.000000
      vertex -5.253289 -16.167961 111.000000
      vertex 2.299626 -21.879482 111.000000
    endloop
  endfacet
  facet normal 0.000000 -0.000000 1.000000
    outer loop
      vertex 1.776984 -16.906872 111.000000
      vertex -1.776984 -16.906872 111.000000
      vertex 6.798374 -20.923243 111.000000
    endloop
  endfacet
  facet normal 0.000000 -0.000000 1.000000
    outer loop
      vertex 8.500000 -14.722432 111.000000
      vertex 5.253289 -16.167961 111.000000
      vertex 11.000000 -19.052559 111.000000
    endloop
  endfacet
  facet normal 0.000000 -0.000000 1.000000
    outer loop
      vertex 11.375220 -12.633462 111.000000
      vertex 8.500000 -14.722432 111.000000
      vertex 14.720873 -16.349186 111.000000
    endloop
  endfacet
  facet normal 0.000000 -0.000000 1.000000
    outer loop
      vertex 13.753289 -9.992349 111.000000
      vertex 11.375220 -12.633462 111.000000
      vertex 17.798374 -12.931276 111.000000
    endloop
  endfacet
  facet normal 0.000000 -0.000000 1.000000
    outer loop
      vertex 15.530273 -6.914523 111.000000
      vertex 13.753289 -9.992349 111.000000
      vertex 20.098000 -8.948206 111.000000
    endloop
  endfacet
  facet normal 0.000000 0.000000 1.000000
    outer loop
      vertex 21.579583 -4.000000 111.000000
      vertex 16.477259 -4.000000 111.000000
      vertex 21.519247 -4.574057 111.000000
    endloop
  endfacet
  facet normal 0.000000 0.000000 1.000000
    outer loop
      vertex 21.519247 -4.574057 111.000000
      vertex 15.530273 -6.914523 111.000000
      vertex 20.098000 -8.948206 111.000000
    endloop
  endfacet
  facet normal 0.000000 0.000000 1.000000
    outer loop
      vertex 20.098000 -8.948206 111.000000
      vertex 13.753289 -9.992349 111.000000
      vertex 17.798374 -12.931276 111.000000
    endloop
  endfacet
  facet normal -0.000000 0.000000 1.000000
    outer loop
      vertex 17.798374 -12.931276 111.000000
      vertex 11.375220 -12.633462 111.000000
      vertex 14.720873 -16.349186 111.000000
    endloop
  endfacet
  facet normal -0.000000 0.000000 1.000000
    outer loop
      vertex 14.720873 -16.349186 111.000000
      vertex 8.500000 -14.722432 111.000000
      vertex 11.000000 -19.052559 111.000000
    endloop
  endfacet
  facet normal -0.000000 0.000000 1.000000
    outer loop
      vertex 11.000000 -19.052559 111.000000
      vertex 5.253289 -16.167961 111.000000
      vertex 6.798374 -20.923243 111.000000
    endloop
  endfacet
  facet normal 0.000000 -0.000000 1.000000
    outer loop
      vertex 5.253289 -16.167961 111.000000
      vertex 1.776984 -16.906872 111.000000
      vertex 6.798374 -20.923243 111.000000
    endloop
  endfacet
  facet normal -0.000000 0.000000 1.000000
    outer loop
      vertex 6.798374 -20.923243 111.000000
      vertex -1.776984 -16.906872 111.000000
      vertex 2.299626 -21.879482 111.000000
    endloop
  endfacet
  facet normal -0.000000 0.000000 1.000000
    outer loop
      vertex 2.299626 -21.879482 111.000000
      vertex -5.253289 -16.167961 111.000000
      vertex -2.299626 -21.879482 111.000000
    endloop
  endfacet
  facet normal 0.000000 0.000000 1.000000
    outer loop
      vertex -2.299626 -21.879482 111.000000
      vertex -8.500000 -14.722432 111.000000
      vertex -6.798374 -20.923243 111.000000
    endloop
  endfacet
  facet normal -0.000000 -0.000000 1.000000
    outer loop
      vertex -8.500000 -14.722432 111.000000
      vertex -11.375220 -12.633462 111.000000
      vertex -6.798374 -20.923243 111.000000
    endloop
  endfacet
  facet normal 0.000000 0.000000 1.000000
    outer loop
      vertex -6.798374 -20.923243 111.000000
      vertex -13.753289 -9.992349 111.000000
      vertex -11.000000 -19.052559 111.000000
    endloop
  endfacet
  facet normal 0.000000 0.000000 1.000000
    outer loop
      vertex -11.000000 -19.052559 111.000000
      vertex -15.530273 -6.914523 111.000000
      vertex -14.720873 -16.349186 111.000000
    endloop
  endfacet
  facet normal 0.000000 -0.000000 1.000000
    outer loop
      vertex 16.477259 -4.000000 111.000000
      vertex 15.530273 -6.914523 111.000000
      vertex 21.519247 -4.574057 111.000000
    endloop
  endfacet
  facet normal 0.705162 -0.074116 -0.705162
    outer loop
      vertex 21.519247 -4.574057 111.000000
      vertex 21.328577 -4.000000 110.748994
      vertex 21.579583 -4.000000 111.000000
    endloop
  endfacet
  facet normal -0.951057 0.309017 0.000000
    outer loop
      vertex 16.477259 -4.000000 111.000000
      vertex 16.477259 -4.000000 30.000000
      vertex 15.530273 -6.914523 111.000000
    endloop
  endfacet
  facet normal -0.951057 0.309017 0.000000
    outer loop
      vertex 16.628509 -3.534499 5.000000
      vertex 16.477259 -4.000000 30.000000
      vertex 16.628509 -3.534499 30.000000
    endloop
  endfacet
  facet normal -0.951057 0.309017 -0.000000
    outer loop
      vertex 15.530273 -6.914523 111.000000
      vertex 16.477259 -4.000000 30.000000
      vertex 16.628509 -3.534499 5.000000
    endloop
  endfacet
  facet normal -0.951057 0.309017 0.000000
    outer loop
      vertex 15.530273 -6.914523 111.000000
      vertex 16.628509 -3.534499 5.000000
      vertex 15.530273 -6.914523 5.000000
    endloop
  endfacet
  facet normal -0.994522 0.104529 0.000000
    outer loop
      vertex 17.000000 0.000000 30.000000
      vertex 17.000000 0.000000 5.000000
      vertex 16.628509 -3.534499 30.000000
    endloop
  endfacet
  facet normal -0.994522 0.104529 0.000000
    outer loop
      vertex 16.628509 -3.534499 30.000000
      vertex 17.000000 0.000000 5.000000
      vertex 16.628509 -3.534499 5.000000
    endloop
  endfacet
  facet normal -0.994522 -0.104529 0.000000
    outer loop
      vertex 17.000000 0.000000 30.000000
      vertex 16.628509 3.534499 30.000000
      vertex 17.000000 0.000000 5.000000
    endloop
  endfacet
  facet normal -0.994522 -0.104529 0.000000
    outer loop
      vertex 17.000000 0.000000 5.000000
      vertex 16.628509 3.534499 30.000000
      vertex 16.628509 3.534499 5.000000
    endloop
  endfacet
  facet normal -0.951057 -0.309017 0.000000
    outer loop
      vertex 16.628509 3.534499 30.000000
      vertex 16.477259 4.000000 30.000000
      vertex 16.628509 3.534499 5.000000
    endloop
  endfacet
  facet normal -0.951057 -0.309017 0.000000
    outer loop
      vertex 15.530273 6.914523 111.000000
      vertex 16.477259 4.000000 30.000000
      vertex 16.477259 4.000000 111.000000
    endloop
  endfacet
  facet normal -0.951057 -0.309017 -0.000000
    outer loop
      vertex 16.628509 3.534499 5.000000
      vertex 16.477259 4.000000 30.000000
      vertex 15.530273 6.914523 111.000000
    endloop
  endfacet
  facet normal -0.951057 -0.309017 0.000000
    outer loop
      vertex 16.628509 3.534499 5.000000
      vertex 15.530273 6.914523 111.000000
      vertex 15.530273 6.914523 5.000000
    endloop
  endfacet
  facet normal 0.000000 -0.000000 1.000000
    outer loop
      vertex -21.519247 4.574057 111.000000
      vertex -21.579583 4.000000 111.000000
      vertex -16.477259 4.000000 111.000000
    endloop
  endfacet
  facet normal 0.000000 0.000000 1.000000
    outer loop
      vertex -13.753289 9.992349 111.000000
      vertex -21.519247 4.574057 111.000000
      vertex -15.530273 6.914523 111.000000
    endloop
  endfacet
  facet normal 0.000000 0.000000 1.000000
    outer loop
      vertex -15.530273 6.914523 111.000000
      vertex -21.519247 4.574057 111.000000
      vertex -16.477259 4.000000 111.000000
    endloop
  endfacet
  facet normal 0.000000 0.000000 1.000000
    outer loop
      vertex -11.375220 12.633462 111.000000
      vertex -21.519247 4.574057 111.000000
      vertex -13.753289 9.992349 111.000000
    endloop
  endfacet
  facet normal 0.000000 0.000000 1.000000
    outer loop
      vertex -2.299626 21.879482 111.000000
      vertex -21.519247 4.574057 111.000000
      vertex -11.375220 12.633462 111.000000
    endloop
  endfacet
  facet normal 0.000000 0.000000 1.000000
    outer loop
      vertex -2.299626 21.879482 111.000000
      vertex -11.375220 12.633462 111.000000
      vertex -8.500000 14.722432 111.000000
    endloop
  endfacet
  facet normal 0.000000 0.000000 1.000000
    outer loop
      vertex 2.299626 21.879482 111.000000
      vertex -8.500000 14.722432 111.000000
      vertex -5.253289 16.167961 111.000000
    endloop
  endfacet
  facet normal 0.000000 0.000000 1.000000
    outer loop
      vertex 6.798374 20.923243 111.000000
      vertex -5.253289 16.167961 111.000000
      vertex -1.776984 16.906872 111.000000
    endloop
  endfacet
  facet normal 0.000000 0.000000 1.000000
    outer loop
      vertex 11.000000 19.052559 111.000000
      vertex -1.776984 16.906872 111.000000
      vertex 1.776984 16.906872 111.000000
    endloop
  endfacet
  facet normal -0.000000 0.000000 1.000000
    outer loop
      vertex 14.720873 16.349186 111.000000
      vertex 1.776984 16.906872 111.000000
      vertex 5.253289 16.167961 111.000000
    endloop
  endfacet
  facet normal 0.000000 0.000000 1.000000
    outer loop
      vertex 17.798374 12.931276 111.000000
      vertex 5.253289 16.167961 111.000000
      vertex 8.500000 14.722432 111.000000
    endloop
  endfacet
  facet normal 0.000000 0.000000 1.000000
    outer loop
      vertex 20.098000 8.948206 111.000000
      vertex 8.500000 14.722432 111.000000
      vertex 11.375220 12.633462 111.000000
    endloop
  endfacet
  facet normal 0.000000 0.000000 1.000000
    outer loop
      vertex 21.579583 4.000000 111.000000
      vertex 11.375220 12.633462 111.000000
      vertex 13.753289 9.992349 111.000000
    endloop
  endfacet
  facet normal 0.000000 0.000000 1.000000
    outer loop
      vertex 21.579583 4.000000 111.000000
      vertex 13.753289 9.992349 111.000000
      vertex 15.530273 6.914523 111.000000
    endloop
  endfacet
  facet normal -0.000000 0.000000 1.000000
    outer loop
      vertex 21.579583 4.000000 111.000000
      vertex 15.530273 6.914523 111.000000
      vertex 16.477259 4.000000 111.000000
    endloop
  endfacet
  facet normal -0.000000 -0.000000 1.000000
    outer loop
      vertex 21.519247 4.574057 111.000000
      vertex 11.375220 12.633462 111.000000
      vertex 21.579583 4.000000 111.000000
    endloop
  endfacet
  facet normal -0.000000 -0.000000 1.000000
    outer loop
      vertex 20.098000 8.948206 111.000000
      vertex 11.375220 12.633462 111.000000
      vertex 21.519247 4.574057 111.000000
    endloop
  endfacet
  facet normal -0.000000 -0.000000 1.000000
    outer loop
      vertex 17.798374 12.931276 111.000000
      vertex 8.500000 14.722432 111.000000
      vertex 20.098000 8.948206 111.000000
    endloop
  endfacet
  facet normal 0.000000 -0.000000 1.000000
    outer loop
      vertex 14.720873 16.349186 111.000000
      vertex 5.253289 16.167961 111.000000
      vertex 17.798374 12.931276 111.000000
    endloop
  endfacet
  facet normal 0.000000 -0.000000 1.000000
    outer loop
      vertex 11.000000 19.052559 111.000000
      vertex 1.776984 16.906872 111.000000
      vertex 14.720873 16.349186 111.000000
    endloop
  endfacet
  facet normal 0.000000 -0.000000 1.000000
    outer loop
      vertex 6.798374 20.923243 111.000000
      vertex -1.776984 16.906872 111.000000
      vertex 11.000000 19.052559 111.000000
    endloop
  endfacet
  facet normal 0.000000 -0.000000 1.000000
    outer loop
      vertex 2.299626 21.879482 111.000000
      vertex -5.253289 16.167961 111.000000
      vertex 6.798374 20.923243 111.000000
    endloop
  endfacet
  facet normal 0.000000 -0.000000 1.000000
    outer loop
      vertex -2.299626 21.879482 111.000000
      vertex -8.500000 14.722432 111.000000
      vertex 2.299626 21.879482 111.000000
    endloop
  endfacet
  facet normal 0.000000 -0.000000 1.000000
    outer loop
      vertex -6.798374 20.923243 111.000000
      vertex -21.519247 4.574057 111.000000
      vertex -2.299626 21.879482 111.000000
    endloop
  endfacet
  facet normal 0.000000 -0.000000 1.000000
    outer loop
      vertex -11.000000 19.052559 111.000000
      vertex -21.519247 4.574057 111.000000
      vertex -6.798374 20.923243 111.000000
    endloop
  endfacet
  facet normal 0.000000 -0.000000 1.000000
    outer loop
      vertex -14.720873 16.349186 111.000000
      vertex -21.519247 4.574057 111.000000
      vertex -11.000000 19.052559 111.000000
    endloop
  endfacet
  facet normal 0.000000 -0.000000 1.000000
    outer loop
      vertex -17.798374 12.931276 111.000000
      vertex -21.519247 4.574057 111.000000
      vertex -14.720873 16.349186 111.000000
    endloop
  endfacet
  facet normal 0.000000 -0.000000 1.000000
    outer loop
      vertex -20.098000 8.948206 111.000000
      vertex -21.519247 4.574057 111.000000
      vertex -17.798374 12.931276 111.000000
    endloop
  endfacet
  facet normal -0.705162 0.074116 -0.705162
    outer loop
      vertex -21.328577 4.000000 110.748994
      vertex -21.579583 4.000000 111.000000
      vertex -21.519247 4.574057 111.000000
    endloop
  endfacet
  facet normal 0.000000 0.000000 1.000000
    outer loop
      vertex -16.628509 -3.534499 5.000000
      vertex -15.530273 -6.914523 5.000000
      vertex -13.753289 -9.992349 5.000000
    endloop
  endfacet
  facet normal 0.000000 0.000000 1.000000
    outer loop
      vertex -8.500000 -14.722432 5.000000
      vertex -16.628509 -3.534499 5.000000
      vertex -11.375220 -12.633462 5.000000
    endloop
  endfacet
  facet normal 0.000000 0.000000 1.000000
    outer loop
      vertex -11.375220 -12.633462 5.000000
      vertex -16.628509 -3.534499 5.000000
      vertex -13.753289 -9.992349 5.000000
    endloop
  endfacet
  facet normal 0.000000 0.000000 1.000000
    outer loop
      vertex -5.253289 -16.167961 5.000000
      vertex -16.628509 -3.534499 5.000000
      vertex -8.500000 -14.722432 5.000000
    endloop
  endfacet
  facet normal 0.000000 0.000000 1.000000
    outer loop
      vertex -1.776984 -16.906872 5.000000
      vertex -16.628509 -3.534499 5.000000
      vertex -5.253289 -16.167961 5.000000
    endloop
  endfacet
  facet normal -0.000000 0.000000 1.000000
    outer loop
      vertex 1.776984 -16.906872 5.000000
      vertex -16.628509 -3.534499 5.000000
      vertex -1.776984 -16.906872 5.000000
    endloop
  endfacet
  facet normal -0.000000 0.000000 1.000000
    outer loop
      vertex 5.253289 -16.167961 5.000000
      vertex -16.628509 -3.534499 5.000000
      vertex 1.776984 -16.906872 5.000000
    endloop
  endfacet
  facet normal -0.000000 0.000000 1.000000
    outer loop
      vertex 8.500000 -14.722432 5.000000
      vertex -16.628509 -3.534499 5.000000
      vertex 5.253289 -16.167961 5.000000
    endloop
  endfacet
  facet normal -0.000000 0.000000 1.000000
    outer loop
      vertex 11.375220 -12.633462 5.000000
      vertex -16.628509 -3.534499 5.000000
      vertex 8.500000 -14.722432 5.000000
    endloop
  endfacet
  facet normal -0.000000 0.000000 1.000000
    outer loop
      vertex 13.753289 -9.992349 5.000000
      vertex -16.628509 -3.534499 5.000000
      vertex 11.375220 -12.633462 5.000000
    endloop
  endfacet
  facet normal -0.000000 0.000000 1.000000
    outer loop
      vertex 15.530273 -6.914523 5.000000
      vertex -16.628509 -3.534499 5.000000
      vertex 13.753289 -9.992349 5.000000
    endloop
  endfacet
  facet normal 0.000000 0.000000 1.000000
    outer loop
      vertex 16.628509 -3.534499 5.000000
      vertex -16.628509 -3.534499 5.000000
      vertex 15.530273 -6.914523 5.000000
    endloop
  endfacet
  facet normal 0.000000 0.000000 1.000000
    outer loop
      vertex 17.000000 0.000000 5.000000
      vertex -16.628509 -3.534499 5.000000
      vertex 16.628509 -3.534499 5.000000
    endloop
  endfacet
  facet normal 0.000000 -0.000000 1.000000
    outer loop
      vertex 16.628509 3.534499 5.000000
      vertex -16.628509 -3.534499 5.000000
      vertex 17.000000 0.000000 5.000000
    endloop
  endfacet
  facet normal 0.000000 -0.000000 1.000000
    outer loop
      vertex 15.530273 6.914523 5.000000
      vertex -16.628509 -3.534499 5.000000
      vertex 16.628509 3.534499 5.000000
    endloop
  endfacet
  facet normal 0.000000 -0.000000 1.000000
    outer loop
      vertex 13.753289 9.992349 5.000000
      vertex -16.628509 -3.534499 5.000000
      vertex 15.530273 6.914523 5.000000
    endloop
  endfacet
  facet normal 0.000000 -0.000000 1.000000
    outer loop
      vertex 11.375220 12.633462 5.000000
      vertex -16.628509 -3.534499 5.000000
      vertex 13.753289 9.992349 5.000000
    endloop
  endfacet
  facet normal 0.000000 -0.000000 1.000000
    outer loop
      vertex 8.500000 14.722432 5.000000
      vertex -16.628509 -3.534499 5.000000
      vertex 11.375220 12.633462 5.000000
    endloop
  endfacet
  facet normal 0.000000 -0.000000 1.000000
    outer loop
      vertex 5.253289 16.167961 5.000000
      vertex -16.628509 -3.534499 5.000000
      vertex 8.500000 14.722432 5.000000
    endloop
  endfacet
  facet normal 0.000000 -0.000000 1.000000
    outer loop
      vertex 1.776984 16.906872 5.000000
      vertex -16.628509 -3.534499 5.000000
      vertex 5.253289 16.167961 5.000000
    endloop
  endfacet
  facet normal 0.000000 -0.000000 1.000000
    outer loop
      vertex -1.776984 16.906872 5.000000
      vertex -16.628509 -3.534499 5.000000
      vertex 1.776984 16.906872 5.000000
    endloop
  endfacet
  facet normal 0.000000 -0.000000 1.000000
    outer loop
      vertex -5.253289 16.167961 5.000000
      vertex -16.628509 -3.534499 5.000000
      vertex -1.776984 16.906872 5.000000
    endloop
  endfacet
  facet normal 0.000000 -0.000000 1.000000
    outer loop
      vertex -8.500000 14.722432 5.000000
      vertex -16.628509 -3.534499 5.000000
      vertex -5.253289 16.167961 5.000000
    endloop
  endfacet
  facet normal 0.000000 -0.000000 1.000000
    outer loop
      vertex -11.375220 12.633462 5.000000
      vertex -16.628509 -3.534499 5.000000
      vertex -8.500000 14.722432 5.000000
    endloop
  endfacet
  facet normal 0.000000 -0.000000 1.000000
    outer loop
      vertex -13.753289 9.992349 5.000000
      vertex -16.628509 -3.534499 5.000000
      vertex -11.375220 12.633462 5.000000
    endloop
  endfacet
  facet normal 0.000000 -0.000000 1.000000
    outer loop
      vertex -15.530273 6.914523 5.000000
      vertex -16.628509 -3.534499 5.000000
      vertex -13.753289 9.992349 5.000000
    endloop
  endfacet
  facet normal 0.000000 -0.000000 1.000000
    outer loop
      vertex -16.628509 3.534499 5.000000
      vertex -16.628509 -3.534499 5.000000
      vertex -15.530273 6.914523 5.000000
    endloop
  endfacet
  facet normal 0.000000 0.000000 1.000000
    outer loop
      vertex -17.000000 0.000000 5.000000
      vertex -16.628509 -3.534499 5.000000
      vertex -16.628509 3.534499 5.000000
    endloop
  endfacet
  facet normal 0.866025 -0.500000 0.000000
    outer loop
      vertex -13.753289 9.992349 5.000000
      vertex -13.753289 9.992349 111.000000
      vertex -15.530273 6.914523 111.000000
    endloop
  endfacet
  facet normal 0.866025 -0.500000 0.000000
    outer loop
      vertex -15.530273 6.914523 5.000000
      vertex -13.753289 9.992349 5.000000
      vertex -15.530273 6.914523 111.000000
    endloop
  endfacet
  facet normal 0.866025 0.500000 0.000000
    outer loop
      vertex -15.530273 -6.914523 111.000000
      vertex -13.753289 -9.992349 111.000000
      vertex -13.753289 -9.992349 5.000000
    endloop
  endfacet
  facet normal 0.866025 0.500000 0.000000
    outer loop
      vertex -15.530273 -6.914523 5.000000
      vertex -15.530273 -6.914523 111.000000
      vertex -13.753289 -9.992349 5.000000
    endloop
  endfacet
  facet normal 0.743145 0.669131 0.000000
    outer loop
      vertex -13.753289 -9.992349 111.000000
      vertex -11.375220 -12.633462 111.000000
      vertex -11.375220 -12.633462 5.000000
    endloop
  endfacet
  facet normal 0.743145 0.669131 0.000000
    outer loop
      vertex -13.753289 -9.992349 5.000000
      vertex -13.753289 -9.992349 111.000000
      vertex -11.375220 -12.633462 5.000000
    endloop
  endfacet
  facet normal 0.587785 0.809017 -0.000000
    outer loop
      vertex -8.500000 -14.722432 111.000000
      vertex -8.500000 -14.722432 5.000000
      vertex -11.375220 -12.633462 111.000000
    endloop
  endfacet
  facet normal 0.587785 0.809017 -0.000000
    outer loop
      vertex -11.375220 -12.633462 111.000000
      vertex -8.500000 -14.722432 5.000000
      vertex -11.375220 -12.633462 5.000000
    endloop
  endfacet
  facet normal 0.406737 0.913545 -0.000000
    outer loop
      vertex -5.253289 -16.167961 111.000000
      vertex -5.253289 -16.167961 5.000000
      vertex -8.500000 -14.722432 111.000000
    endloop
  endfacet
  facet normal 0.406737 0.913545 -0.000000
    outer loop
      vertex -8.500000 -14.722432 111.000000
      vertex -5.253289 -16.167961 5.000000
      vertex -8.500000 -14.722432 5.000000
    endloop
  endfacet
  facet normal 0.207912 0.978148 -0.000000
    outer loop
      vertex -1.776984 -16.906872 111.000000
      vertex -1.776984 -16.906872 5.000000
      vertex -5.253289 -16.167961 111.000000
    endloop
  endfacet
  facet normal 0.207912 0.978148 -0.000000
    outer loop
      vertex -5.253289 -16.167961 111.000000
      vertex -1.776984 -16.906872 5.000000
      vertex -5.253289 -16.167961 5.000000
    endloop
  endfacet
  facet normal 0.000000 1.000000 0.000000
    outer loop
      vertex 1.776984 -16.906872 111.000000
      vertex 1.776984 -16.906872 5.000000
      vertex -1.776984 -16.906872 111.000000
    endloop
  endfacet
  facet normal 0.000000 1.000000 -0.000000
    outer loop
      vertex -1.776984 -16.906872 111.000000
      vertex 1.776984 -16.906872 5.000000
      vertex -1.776984 -16.906872 5.000000
    endloop
  endfacet
  facet normal -0.207912 0.978148 0.000000
    outer loop
      vertex 5.253289 -16.167961 111.000000
      vertex 5.253289 -16.167961 5.000000
      vertex 1.776984 -16.906872 111.000000
    endloop
  endfacet
  facet normal -0.207912 0.978148 0.000000
    outer loop
      vertex 1.776984 -16.906872 111.000000
      vertex 5.253289 -16.167961 5.000000
      vertex 1.776984 -16.906872 5.000000
    endloop
  endfacet
  facet normal -0.406737 0.913545 0.000000
    outer loop
      vertex 8.500000 -14.722432 111.000000
      vertex 8.500000 -14.722432 5.000000
      vertex 5.253289 -16.167961 111.000000
    endloop
  endfacet
  facet normal -0.406737 0.913545 0.000000
    outer loop
      vertex 5.253289 -16.167961 111.000000
      vertex 8.500000 -14.722432 5.000000
      vertex 5.253289 -16.167961 5.000000
    endloop
  endfacet
  facet normal -0.587785 0.809017 0.000000
    outer loop
      vertex 11.375220 -12.633462 111.000000
      vertex 11.375220 -12.633462 5.000000
      vertex 8.500000 -14.722432 111.000000
    endloop
  endfacet
  facet normal -0.587785 0.809017 0.000000
    outer loop
      vertex 8.500000 -14.722432 111.000000
      vertex 11.375220 -12.633462 5.000000
      vertex 8.500000 -14.722432 5.000000
    endloop
  endfacet
  facet normal -0.743145 0.669131 0.000000
    outer loop
      vertex 13.753289 -9.992349 111.000000
      vertex 13.753289 -9.992349 5.000000
      vertex 11.375220 -12.633462 111.000000
    endloop
  endfacet
  facet normal -0.743145 0.669131 0.000000
    outer loop
      vertex 11.375220 -12.633462 111.000000
      vertex 13.753289 -9.992349 5.000000
      vertex 11.375220 -12.633462 5.000000
    endloop
  endfacet
  facet normal -0.866025 0.500000 0.000000
    outer loop
      vertex 15.530273 -6.914523 111.000000
      vertex 15.530273 -6.914523 5.000000
      vertex 13.753289 -9.992349 111.000000
    endloop
  endfacet
  facet normal -0.866025 0.500000 0.000000
    outer loop
      vertex 13.753289 -9.992349 111.000000
      vertex 15.530273 -6.914523 5.000000
      vertex 13.753289 -9.992349 5.000000
    endloop
  endfacet
  facet normal -0.866025 -0.500000 0.000000
    outer loop
      vertex 15.530273 6.914523 111.000000
      vertex 13.753289 9.992349 111.000000
      vertex 15.530273 6.914523 5.000000
    endloop
  endfacet
  facet normal -0.866025 -0.500000 0.000000
    outer loop
      vertex 15.530273 6.914523 5.000000
      vertex 13.753289 9.992349 111.000000
      vertex 13.753289 9.992349 5.000000
    endloop
  endfacet
  facet normal -0.743145 -0.669131 0.000000
    outer loop
      vertex 13.753289 9.992349 111.000000
      vertex 11.375220 12.633462 111.000000
      vertex 13.753289 9.992349 5.000000
    endloop
  endfacet
  facet normal -0.743145 -0.669131 0.000000
    outer loop
      vertex 13.753289 9.992349 5.000000
      vertex 11.375220 12.633462 111.000000
      vertex 11.375220 12.633462 5.000000
    endloop
  endfacet
  facet normal -0.587785 -0.809017 -0.000000
    outer loop
      vertex 11.375220 12.633462 5.000000
      vertex 11.375220 12.633462 111.000000
      vertex 8.500000 14.722432 111.000000
    endloop
  endfacet
  facet normal -0.587785 -0.809017 -0.000000
    outer loop
      vertex 8.500000 14.722432 5.000000
      vertex 11.375220 12.633462 5.000000
      vertex 8.500000 14.722432 111.000000
    endloop
  endfacet
  facet normal -0.406737 -0.913545 -0.000000
    outer loop
      vertex 8.500000 14.722432 5.000000
      vertex 8.500000 14.722432 111.000000
      vertex 5.253289 16.167961 111.000000
    endloop
  endfacet
  facet normal -0.406737 -0.913545 -0.000000
    outer loop
      vertex 5.253289 16.167961 5.000000
      vertex 8.500000 14.722432 5.000000
      vertex 5.253289 16.167961 111.000000
    endloop
  endfacet
  facet normal -0.207912 -0.978148 -0.000000
    outer loop
      vertex 5.253289 16.167961 5.000000
      vertex 5.253289 16.167961 111.000000
      vertex 1.776984 16.906872 111.000000
    endloop
  endfacet
  facet normal -0.207912 -0.978148 -0.000000
    outer loop
      vertex 1.776984 16.906872 5.000000
      vertex 5.253289 16.167961 5.000000
      vertex 1.776984 16.906872 111.000000
    endloop
  endfacet
  facet normal 0.000000 -1.000000 0.000000
    outer loop
      vertex 1.776984 16.906872 5.000000
      vertex 1.776984 16.906872 111.000000
      vertex -1.776984 16.906872 111.000000
    endloop
  endfacet
  facet normal -0.000000 -1.000000 -0.000000
    outer loop
      vertex -1.776984 16.906872 5.000000
      vertex 1.776984 16.906872 5.000000
      vertex -1.776984 16.906872 111.000000
    endloop
  endfacet
  facet normal 0.207912 -0.978148 0.000000
    outer loop
      vertex -1.776984 16.906872 5.000000
      vertex -1.776984 16.906872 111.000000
      vertex -5.253289 16.167961 111.000000
    endloop
  endfacet
  facet normal 0.207912 -0.978148 0.000000
    outer loop
      vertex -5.253289 16.167961 5.000000
      vertex -1.776984 16.906872 5.000000
      vertex -5.253289 16.167961 111.000000
    endloop
  endfacet
  facet normal 0.406737 -0.913545 0.000000
    outer loop
      vertex -5.253289 16.167961 5.000000
      vertex -5.253289 16.167961 111.000000
      vertex -8.500000 14.722432 111.000000
    endloop
  endfacet
  facet normal 0.406737 -0.913545 0.000000
    outer loop
      vertex -8.500000 14.722432 5.000000
      vertex -5.253289 16.167961 5.000000
      vertex -8.500000 14.722432 111.000000
    endloop
  endfacet
  facet normal 0.587785 -0.809017 0.000000
    outer loop
      vertex -8.500000 14.722432 5.000000
      vertex -8.500000 14.722432 111.000000
      vertex -11.375220 12.633462 111.000000
    endloop
  endfacet
  facet normal 0.587785 -0.809017 0.000000
    outer loop
      vertex -11.375220 12.633462 5.000000
      vertex -8.500000 14.722432 5.000000
      vertex -11.375220 12.633462 111.000000
    endloop
  endfacet
  facet normal 0.743145 -0.669131 0.000000
    outer loop
      vertex -11.375220 12.633462 5.000000
      vertex -11.375220 12.633462 111.000000
      vertex -13.753289 9.992349 111.000000
    endloop
  endfacet
  facet normal 0.743145 -0.669131 0.000000
    outer loop
      vertex -13.753289 9.992349 5.000000
      vertex -11.375220 12.633462 5.000000
      vertex -13.753289 9.992349 111.000000
    endloop
  endfacet
endsolid OpenSCAD_Model
