solid OpenSCAD_Model
  facet normal -1.000000 -0.000000 -0.000000
    outer loop
      vertex -40.000000 -40.000000 0.000000
      vertex -40.000000 -40.000000 4.000000
      vertex -40.000000 40.000000 0.000000
    endloop
  endfacet
  facet normal -1.000000 0.000000 0.000000
    outer loop
      vertex -40.000000 40.000000 0.000000
      vertex -40.000000 -40.000000 4.000000
      vertex -40.000000 40.000000 4.000000
    endloop
  endfacet
  facet normal 0.000000 -1.000000 0.000000
    outer loop
      vertex -40.000000 -40.000000 4.000000
      vertex -40.000000 -40.000000 0.000000
      vertex 40.000000 -40.000000 0.000000
    endloop
  endfacet
  facet normal 0.000000 -1.000000 0.000000
    outer loop
      vertex 40.000000 -40.000000 4.000000
      vertex -40.000000 -40.000000 4.000000
      vertex 40.000000 -40.000000 0.000000
    endloop
  endfacet
  facet normal -0.000000 -0.000000 -1.000000
    outer loop
      vertex -40.000000 -40.000000 0.000000
      vertex -40.000000 40.000000 0.000000
      vertex 40.000000 -40.000000 0.000000
    endloop
  endfacet
  facet normal 0.000000 0.000000 -1.000000
    outer loop
      vertex 40.000000 -40.000000 0.000000
      vertex -40.000000 40.000000 0.000000
      vertex 40.000000 40.000000 0.000000
    endloop
  endfacet
  facet normal 0.000000 1.000000 0.000000
    outer loop
      vertex -40.000000 40.000000 0.000000
      vertex -40.000000 40.000000 4.000000
      vertex 40.000000 40.000000 0.000000
    endloop
  endfacet
  facet normal 0.000000 1.000000 0.000000
    outer loop
      vertex 40.000000 40.000000 0.000000
      vertex -40.000000 40.000000 4.000000
      vertex 40.000000 40.000000 4.000000
    endloop
  endfacet
  facet normal 0.000000 -0.000000 1.000000
    outer loop
      vertex 2.038305 -19.393177 4.000000
      vertex -40.000000 -40.000000 4.000000
      vertex 40.000000 -40.000000 4.000000
    endloop
  endfacet
  facet normal 0.000000 -0.000000 1.000000
    outer loop
      vertex -40.000000 40.000000 4.000000
      vertex -40.000000 -40.000000 4.000000
      vertex -19.073878 -4.054278 4.000000
    endloop
  endfacet
  facet normal 0.000000 -0.000000 1.000000
    outer loop
      vertex 6.025831 -18.545602 4.000000
      vertex 2.038305 -19.393177 4.000000
      vertex 40.000000 -40.000000 4.000000
    endloop
  endfacet
  facet normal 0.000000 0.000000 1.000000
    outer loop
      vertex -40.000000 40.000000 4.000000
      vertex -19.073878 -4.054278 4.000000
      vertex -19.500000 0.000000 4.000000
    endloop
  endfacet
  facet normal 0.000000 0.000000 1.000000
    outer loop
      vertex -40.000000 40.000000 4.000000
      vertex -19.500000 0.000000 4.000000
      vertex -19.073878 4.054278 4.000000
    endloop
  endfacet
  facet normal 0.000000 0.000000 1.000000
    outer loop
      vertex -40.000000 40.000000 4.000000
      vertex -19.073878 4.054278 4.000000
      vertex -17.814136 7.931365 4.000000
    endloop
  endfacet
  facet normal 0.000000 -0.000000 1.000000
    outer loop
      vertex 9.750000 -16.887495 4.000000
      vertex 6.025831 -18.545602 4.000000
      vertex 40.000000 -40.000000 4.000000
    endloop
  endfacet
  facet normal 0.000000 0.000000 1.000000
    outer loop
      vertex -40.000000 40.000000 4.000000
      vertex -17.814136 7.931365 4.000000
      vertex -15.775831 11.461812 4.000000
    endloop
  endfacet
  facet normal -0.000000 0.000000 1.000000
    outer loop
      vertex -9.750000 16.887495 4.000000
      vertex -40.000000 40.000000 4.000000
      vertex -13.048047 14.491324 4.000000
    endloop
  endfacet
  facet normal 0.000000 0.000000 1.000000
    outer loop
      vertex 40.000000 40.000000 4.000000
      vertex -40.000000 40.000000 4.000000
      vertex -9.750000 16.887495 4.000000
    endloop
  endfacet
  facet normal 0.000000 0.000000 1.000000
    outer loop
      vertex 17.814136 7.931365 4.000000
      vertex 19.073878 4.054278 4.000000
      vertex 40.000000 -40.000000 4.000000
    endloop
  endfacet
  facet normal 0.000000 0.000000 1.000000
    outer loop
      vertex 40.000000 40.000000 4.000000
      vertex -9.750000 16.887495 4.000000
      vertex -6.025831 18.545602 4.000000
    endloop
  endfacet
  facet normal 0.000000 -0.000000 1.000000
    outer loop
      vertex 15.775831 -11.461812 4.000000
      vertex 13.048047 -14.491324 4.000000
      vertex 40.000000 -40.000000 4.000000
    endloop
  endfacet
  facet normal 0.000000 -0.000000 1.000000
    outer loop
      vertex 17.814136 -7.931365 4.000000
      vertex 15.775831 -11.461812 4.000000
      vertex 40.000000 -40.000000 4.000000
    endloop
  endfacet
  facet normal 0.000000 0.000000 1.000000
    outer loop
      vertex 40.000000 40.000000 4.000000
      vertex -2.038305 19.393177 4.000000
      vertex 2.038305 19.393177 4.000000
    endloop
  endfacet
  facet normal 0.000000 -0.000000 1.000000
    outer loop
      vertex 19.073878 -4.054278 4.000000
      vertex 17.814136 -7.931365 4.000000
      vertex 40.000000 -40.000000 4.000000
    endloop
  endfacet
  facet normal 0.000000 0.000000 1.000000
    outer loop
      vertex 40.000000 40.000000 4.000000
      vertex 2.038305 19.393177 4.000000
      vertex 6.025831 18.545602 4.000000
    endloop
  endfacet
  facet normal 0.000000 -0.000000 1.000000
    outer loop
      vertex 13.048047 -14.491324 4.000000
      vertex 9.750000 -16.887495 4.000000
      vertex 40.000000 -40.000000 4.000000
    endloop
  endfacet
  facet normal 0.000000 0.000000 1.000000
    outer loop
      vertex 40.000000 40.000000 4.000000
      vertex 6.025831 18.545602 4.000000
      vertex 9.750000 16.887495 4.000000
    endloop
  endfacet
  facet normal 0.000000 0.000000 1.000000
    outer loop
      vertex 40.000000 40.000000 4.000000
      vertex 9.750000 16.887495 4.000000
      vertex 13.048047 14.491324 4.000000
    endloop
  endfacet
  facet normal 0.000000 0.000000 1.000000
    outer loop
      vertex 19.073878 4.054278 4.000000
      vertex 19.500000 0.000000 4.000000
      vertex 40.000000 -40.000000 4.000000
    endloop
  endfacet
  facet normal 0.000000 0.000000 1.000000
    outer loop
      vertex 40.000000 40.000000 4.000000
      vertex 13.048047 14.491324 4.000000
      vertex 15.775831 11.461812 4.000000
    endloop
  endfacet
  facet normal 0.000000 0.000000 1.000000
    outer loop
      vertex 40.000000 40.000000 4.000000
      vertex 17.814136 7.931365 4.000000
      vertex 40.000000 -40.000000 4.000000
    endloop
  endfacet
  facet normal 0.000000 0.000000 1.000000
    outer loop
      vertex 40.000000 40.000000 4.000000
      vertex 15.775831 11.461812 4.000000
      vertex 17.814136 7.931365 4.000000
    endloop
  endfacet
  facet normal 0.000000 0.000000 1.000000
    outer loop
      vertex -6.025831 18.545602 4.000000
      vertex -2.038305 19.393177 4.000000
      vertex 40.000000 40.000000 4.000000
    endloop
  endfacet
  facet normal 0.000000 -0.000000 1.000000
    outer loop
      vertex 19.500000 0.000000 4.000000
      vertex 19.073878 -4.054278 4.000000
      vertex 40.000000 -40.000000 4.000000
    endloop
  endfacet
  facet normal 0.000000 -0.000000 1.000000
    outer loop
      vertex -2.038305 -19.393177 4.000000
      vertex -40.000000 -40.000000 4.000000
      vertex 2.038305 -19.393177 4.000000
    endloop
  endfacet
  facet normal 0.000000 -0.000000 1.000000
    outer loop
      vertex -6.025831 -18.545602 4.000000
      vertex -40.000000 -40.000000 4.000000
      vertex -2.038305 -19.393177 4.000000
    endloop
  endfacet
  facet normal 0.000000 -0.000000 1.000000
    outer loop
      vertex -9.750000 -16.887495 4.000000
      vertex -40.000000 -40.000000 4.000000
      vertex -6.025831 -18.545602 4.000000
    endloop
  endfacet
  facet normal 0.000000 -0.000000 1.000000
    outer loop
      vertex -13.048047 -14.491324 4.000000
      vertex -40.000000 -40.000000 4.000000
      vertex -9.750000 -16.887495 4.000000
    endloop
  endfacet
  facet normal 0.000000 -0.000000 1.000000
    outer loop
      vertex -15.775831 -11.461812 4.000000
      vertex -40.000000 -40.000000 4.000000
      vertex -13.048047 -14.491324 4.000000
    endloop
  endfacet
  facet normal 0.000000 -0.000000 1.000000
    outer loop
      vertex -17.814136 -7.931365 4.000000
      vertex -40.000000 -40.000000 4.000000
      vertex -15.775831 -11.461812 4.000000
    endloop
  endfacet
  facet normal 0.000000 -0.000000 1.000000
    outer loop
      vertex -19.073878 -4.054278 4.000000
      vertex -40.000000 -40.000000 4.000000
      vertex -17.814136 -7.931365 4.000000
    endloop
  endfacet
  facet normal 0.000000 0.000000 1.000000
    outer loop
      vertex -15.775831 11.461812 4.000000
      vertex -13.048047 14.491324 4.000000
      vertex -40.000000 40.000000 4.000000
    endloop
  endfacet
  facet normal 1.000000 0.000000 -0.000000
    outer loop
      vertex 40.000000 -40.000000 4.000000
      vertex 40.000000 -40.000000 0.000000
      vertex 40.000000 40.000000 0.000000
    endloop
  endfacet
  facet normal 1.000000 0.000000 0.000000
    outer loop
      vertex 40.000000 40.000000 4.000000
      vertex 40.000000 -40.000000 4.000000
      vertex 40.000000 40.000000 0.000000
    endloop
  endfacet
  facet normal -0.994522 -0.104529 -0.000000
    outer loop
      vertex -19.500000 0.000000 4.000000
      vertex -19.073878 -4.054278 4.000000
      vertex -19.500000 0.000000 30.000000
    endloop
  endfacet
  facet normal -0.994522 -0.104529 0.000000
    outer loop
      vertex -19.079583 -4.000000 30.000000
      vertex -19.073878 -4.054278 4.000000
      vertex -19.073878 -4.054278 114.000000
    endloop
  endfacet
  facet normal -0.994522 -0.104529 0.000000
    outer loop
      vertex -19.500000 0.000000 30.000000
      vertex -19.073878 -4.054278 4.000000
      vertex -19.079583 -4.000000 30.000000
    endloop
  endfacet
  facet normal -0.994522 -0.104529 -0.000000
    outer loop
      vertex -19.079583 -4.000000 30.000000
      vertex -19.073878 -4.054278 114.000000
      vertex -19.079583 -4.000000 114.000000
    endloop
  endfacet
  facet normal -0.951057 -0.309017 -0.000000
    outer loop
      vertex -19.073878 -4.054278 4.000000
      vertex -17.814136 -7.931365 4.000000
      vertex -19.073878 -4.054278 114.000000
    endloop
  endfacet
  facet normal -0.951057 -0.309017 0.000000
    outer loop
      vertex -19.073878 -4.054278 114.000000
      vertex -17.814136 -7.931365 4.000000
      vertex -17.814136 -7.931365 114.000000
    endloop
  endfacet
  facet normal -0.866025 -0.500000 -0.000000
    outer loop
      vertex -17.814136 -7.931365 4.000000
      vertex -15.775831 -11.461812 4.000000
      vertex -17.814136 -7.931365 114.000000
    endloop
  endfacet
  facet normal -0.866025 -0.500000 0.000000
    outer loop
      vertex -17.814136 -7.931365 114.000000
      vertex -15.775831 -11.461812 4.000000
      vertex -15.775831 -11.461812 114.000000
    endloop
  endfacet
  facet normal -0.743145 -0.669130 -0.000000
    outer loop
      vertex -15.775831 -11.461812 4.000000
      vertex -13.048047 -14.491324 4.000000
      vertex -15.775831 -11.461812 114.000000
    endloop
  endfacet
  facet normal -0.743145 -0.669130 0.000000
    outer loop
      vertex -15.775831 -11.461812 114.000000
      vertex -13.048047 -14.491324 4.000000
      vertex -13.048047 -14.491324 114.000000
    endloop
  endfacet
  facet normal -0.587785 -0.809017 0.000000
    outer loop
      vertex -13.048047 -14.491324 114.000000
      vertex -13.048047 -14.491324 4.000000
      vertex -9.750000 -16.887495 4.000000
    endloop
  endfacet
  facet normal -0.587785 -0.809017 0.000000
    outer loop
      vertex -9.750000 -16.887495 114.000000
      vertex -13.048047 -14.491324 114.000000
      vertex -9.750000 -16.887495 4.000000
    endloop
  endfacet
  facet normal -0.406737 -0.913545 0.000000
    outer loop
      vertex -9.750000 -16.887495 114.000000
      vertex -9.750000 -16.887495 4.000000
      vertex -6.025831 -18.545602 4.000000
    endloop
  endfacet
  facet normal -0.406737 -0.913545 0.000000
    outer loop
      vertex -6.025831 -18.545602 114.000000
      vertex -9.750000 -16.887495 114.000000
      vertex -6.025831 -18.545602 4.000000
    endloop
  endfacet
  facet normal -0.207912 -0.978148 0.000000
    outer loop
      vertex -6.025831 -18.545602 114.000000
      vertex -6.025831 -18.545602 4.000000
      vertex -2.038305 -19.393177 4.000000
    endloop
  endfacet
  facet normal -0.207912 -0.978148 0.000000
    outer loop
      vertex -2.038305 -19.393177 114.000000
      vertex -6.025831 -18.545602 114.000000
      vertex -2.038305 -19.393177 4.000000
    endloop
  endfacet
  facet normal 0.000000 -1.000000 0.000000
    outer loop
      vertex -2.038305 -19.393177 114.000000
      vertex -2.038305 -19.393177 4.000000
      vertex 2.038305 -19.393177 4.000000
    endloop
  endfacet
  facet normal 0.000000 -1.000000 0.000000
    outer loop
      vertex 2.038305 -19.393177 114.000000
      vertex -2.038305 -19.393177 114.000000
      vertex 2.038305 -19.393177 4.000000
    endloop
  endfacet
  facet normal 0.207912 -0.978148 0.000000
    outer loop
      vertex 2.038305 -19.393177 114.000000
      vertex 2.038305 -19.393177 4.000000
      vertex 6.025831 -18.545602 4.000000
    endloop
  endfacet
  facet normal 0.207912 -0.978148 0.000000
    outer loop
      vertex 6.025831 -18.545602 114.000000
      vertex 2.038305 -19.393177 114.000000
      vertex 6.025831 -18.545602 4.000000
    endloop
  endfacet
  facet normal 0.406737 -0.913545 0.000000
    outer loop
      vertex 6.025831 -18.545602 114.000000
      vertex 6.025831 -18.545602 4.000000
      vertex 9.750000 -16.887495 4.000000
    endloop
  endfacet
  facet normal 0.406737 -0.913545 0.000000
    outer loop
      vertex 9.750000 -16.887495 114.000000
      vertex 6.025831 -18.545602 114.000000
      vertex 9.750000 -16.887495 4.000000
    endloop
  endfacet
  facet normal 0.587785 -0.809017 0.000000
    outer loop
      vertex 9.750000 -16.887495 114.000000
      vertex 9.750000 -16.887495 4.000000
      vertex 13.048047 -14.491324 4.000000
    endloop
  endfacet
  facet normal 0.587785 -0.809017 0.000000
    outer loop
      vertex 13.048047 -14.491324 114.000000
      vertex 9.750000 -16.887495 114.000000
      vertex 13.048047 -14.491324 4.000000
    endloop
  endfacet
  facet normal 0.743145 -0.669130 0.000000
    outer loop
      vertex 13.048047 -14.491324 114.000000
      vertex 13.048047 -14.491324 4.000000
      vertex 15.775831 -11.461812 4.000000
    endloop
  endfacet
  facet normal 0.743145 -0.669130 0.000000
    outer loop
      vertex 15.775831 -11.461812 114.000000
      vertex 13.048047 -14.491324 114.000000
      vertex 15.775831 -11.461812 4.000000
    endloop
  endfacet
  facet normal 0.866025 -0.500000 0.000000
    outer loop
      vertex 15.775831 -11.461812 114.000000
      vertex 15.775831 -11.461812 4.000000
      vertex 17.814136 -7.931365 4.000000
    endloop
  endfacet
  facet normal 0.866025 -0.500000 0.000000
    outer loop
      vertex 17.814136 -7.931365 114.000000
      vertex 15.775831 -11.461812 114.000000
      vertex 17.814136 -7.931365 4.000000
    endloop
  endfacet
  facet normal 0.951057 -0.309017 0.000000
    outer loop
      vertex 17.814136 -7.931365 114.000000
      vertex 17.814136 -7.931365 4.000000
      vertex 19.073878 -4.054278 4.000000
    endloop
  endfacet
  facet normal 0.951057 -0.309017 0.000000
    outer loop
      vertex 19.073878 -4.054278 114.000000
      vertex 17.814136 -7.931365 114.000000
      vertex 19.073878 -4.054278 4.000000
    endloop
  endfacet
  facet normal 0.994522 -0.104529 0.000000
    outer loop
      vertex 19.079583 -4.000000 30.000000
      vertex 19.073878 -4.054278 4.000000
      vertex 19.500000 0.000000 4.000000
    endloop
  endfacet
  facet normal 0.994522 -0.104529 0.000000
    outer loop
      vertex 19.079583 -4.000000 30.000000
      vertex 19.079583 -4.000000 114.000000
      vertex 19.073878 -4.054278 114.000000
    endloop
  endfacet
  facet normal 0.994522 -0.104529 0.000000
    outer loop
      vertex 19.073878 -4.054278 114.000000
      vertex 19.073878 -4.054278 4.000000
      vertex 19.079583 -4.000000 30.000000
    endloop
  endfacet
  facet normal 0.994522 -0.104529 0.000000
    outer loop
      vertex 19.500000 0.000000 30.000000
      vertex 19.079583 -4.000000 30.000000
      vertex 19.500000 0.000000 4.000000
    endloop
  endfacet
  facet normal 0.994522 0.104529 0.000000
    outer loop
      vertex 19.079583 4.000000 30.000000
      vertex 19.073878 4.054278 4.000000
      vertex 19.073878 4.054278 114.000000
    endloop
  endfacet
  facet normal 0.994522 0.104529 0.000000
    outer loop
      vertex 19.079583 4.000000 30.000000
      vertex 19.500000 0.000000 30.000000
      vertex 19.500000 0.000000 4.000000
    endloop
  endfacet
  facet normal 0.994522 0.104529 0.000000
    outer loop
      vertex 19.500000 0.000000 4.000000
      vertex 19.073878 4.054278 4.000000
      vertex 19.079583 4.000000 30.000000
    endloop
  endfacet
  facet normal 0.994522 0.104529 -0.000000
    outer loop
      vertex 19.079583 4.000000 114.000000
      vertex 19.079583 4.000000 30.000000
      vertex 19.073878 4.054278 114.000000
    endloop
  endfacet
  facet normal 0.951057 0.309017 0.000000
    outer loop
      vertex 19.073878 4.054278 4.000000
      vertex 17.814136 7.931365 4.000000
      vertex 17.814136 7.931365 114.000000
    endloop
  endfacet
  facet normal 0.951057 0.309017 -0.000000
    outer loop
      vertex 19.073878 4.054278 114.000000
      vertex 19.073878 4.054278 4.000000
      vertex 17.814136 7.931365 114.000000
    endloop
  endfacet
  facet normal 0.866025 0.500000 0.000000
    outer loop
      vertex 17.814136 7.931365 4.000000
      vertex 15.775831 11.461812 4.000000
      vertex 15.775831 11.461812 114.000000
    endloop
  endfacet
  facet normal 0.866025 0.500000 -0.000000
    outer loop
      vertex 17.814136 7.931365 114.000000
      vertex 17.814136 7.931365 4.000000
      vertex 15.775831 11.461812 114.000000
    endloop
  endfacet
  facet normal 0.743145 0.669130 0.000000
    outer loop
      vertex 15.775831 11.461812 4.000000
      vertex 13.048047 14.491324 4.000000
      vertex 13.048047 14.491324 114.000000
    endloop
  endfacet
  facet normal 0.743145 0.669130 -0.000000
    outer loop
      vertex 15.775831 11.461812 114.000000
      vertex 15.775831 11.461812 4.000000
      vertex 13.048047 14.491324 114.000000
    endloop
  endfacet
  facet normal 0.587785 0.809017 0.000000
    outer loop
      vertex 9.750000 16.887495 4.000000
      vertex 9.750000 16.887495 114.000000
      vertex 13.048047 14.491324 4.000000
    endloop
  endfacet
  facet normal 0.587785 0.809017 0.000000
    outer loop
      vertex 13.048047 14.491324 4.000000
      vertex 9.750000 16.887495 114.000000
      vertex 13.048047 14.491324 114.000000
    endloop
  endfacet
  facet normal 0.406737 0.913545 0.000000
    outer loop
      vertex 6.025831 18.545602 4.000000
      vertex 6.025831 18.545602 114.000000
      vertex 9.750000 16.887495 4.000000
    endloop
  endfacet
  facet normal 0.406737 0.913545 0.000000
    outer loop
      vertex 9.750000 16.887495 4.000000
      vertex 6.025831 18.545602 114.000000
      vertex 9.750000 16.887495 114.000000
    endloop
  endfacet
  facet normal 0.207912 0.978148 0.000000
    outer loop
      vertex 2.038305 19.393177 4.000000
      vertex 2.038305 19.393177 114.000000
      vertex 6.025831 18.545602 4.000000
    endloop
  endfacet
  facet normal 0.207912 0.978148 0.000000
    outer loop
      vertex 6.025831 18.545602 4.000000
      vertex 2.038305 19.393177 114.000000
      vertex 6.025831 18.545602 114.000000
    endloop
  endfacet
  facet normal 0.000000 1.000000 0.000000
    outer loop
      vertex -2.038305 19.393177 4.000000
      vertex -2.038305 19.393177 114.000000
      vertex 2.038305 19.393177 4.000000
    endloop
  endfacet
  facet normal 0.000000 1.000000 0.000000
    outer loop
      vertex 2.038305 19.393177 4.000000
      vertex -2.038305 19.393177 114.000000
      vertex 2.038305 19.393177 114.000000
    endloop
  endfacet
  facet normal -0.207912 0.978148 0.000000
    outer loop
      vertex -6.025831 18.545602 4.000000
      vertex -6.025831 18.545602 114.000000
      vertex -2.038305 19.393177 4.000000
    endloop
  endfacet
  facet normal -0.207912 0.978148 0.000000
    outer loop
      vertex -2.038305 19.393177 4.000000
      vertex -6.025831 18.545602 114.000000
      vertex -2.038305 19.393177 114.000000
    endloop
  endfacet
  facet normal -0.406737 0.913545 0.000000
    outer loop
      vertex -9.750000 16.887495 4.000000
      vertex -9.750000 16.887495 114.000000
      vertex -6.025831 18.545602 4.000000
    endloop
  endfacet
  facet normal -0.406737 0.913545 0.000000
    outer loop
      vertex -6.025831 18.545602 4.000000
      vertex -9.750000 16.887495 114.000000
      vertex -6.025831 18.545602 114.000000
    endloop
  endfacet
  facet normal -0.587785 0.809017 0.000000
    outer loop
      vertex -13.048047 14.491324 4.000000
      vertex -13.048047 14.491324 114.000000
      vertex -9.750000 16.887495 4.000000
    endloop
  endfacet
  facet normal -0.587785 0.809017 0.000000
    outer loop
      vertex -9.750000 16.887495 4.000000
      vertex -13.048047 14.491324 114.000000
      vertex -9.750000 16.887495 114.000000
    endloop
  endfacet
  facet normal -0.743145 0.669130 0.000000
    outer loop
      vertex -15.775831 11.461812 4.000000
      vertex -15.775831 11.461812 114.000000
      vertex -13.048047 14.491324 4.000000
    endloop
  endfacet
  facet normal -0.743145 0.669130 0.000000
    outer loop
      vertex -13.048047 14.491324 4.000000
      vertex -15.775831 11.461812 114.000000
      vertex -13.048047 14.491324 114.000000
    endloop
  endfacet
  facet normal -0.866025 0.500000 0.000000
    outer loop
      vertex -17.814136 7.931365 4.000000
      vertex -17.814136 7.931365 114.000000
      vertex -15.775831 11.461812 4.000000
    endloop
  endfacet
  facet normal -0.866025 0.500000 0.000000
    outer loop
      vertex -15.775831 11.461812 4.000000
      vertex -17.814136 7.931365 114.000000
      vertex -15.775831 11.461812 114.000000
    endloop
  endfacet
  facet normal -0.951057 0.309017 0.000000
    outer loop
      vertex -19.073878 4.054278 4.000000
      vertex -19.073878 4.054278 114.000000
      vertex -17.814136 7.931365 4.000000
    endloop
  endfacet
  facet normal -0.951057 0.309017 0.000000
    outer loop
      vertex -17.814136 7.931365 4.000000
      vertex -19.073878 4.054278 114.000000
      vertex -17.814136 7.931365 114.000000
    endloop
  endfacet
  facet normal -0.994522 0.104529 0.000000
    outer loop
      vertex -19.500000 0.000000 4.000000
      vertex -19.500000 0.000000 30.000000
      vertex -19.073878 4.054278 4.000000
    endloop
  endfacet
  facet normal -0.994522 0.104529 0.000000
    outer loop
      vertex -19.073878 4.054278 4.000000
      vertex -19.500000 0.000000 30.000000
      vertex -19.079583 4.000000 30.000000
    endloop
  endfacet
  facet normal -0.994522 0.104529 0.000000
    outer loop
      vertex -19.073878 4.054278 4.000000
      vertex -19.079583 4.000000 30.000000
      vertex -19.079583 4.000000 114.000000
    endloop
  endfacet
  facet normal -0.994522 0.104529 0.000000
    outer loop
      vertex -19.073878 4.054278 4.000000
      vertex -19.079583 4.000000 114.000000
      vertex -19.073878 4.054278 114.000000
    endloop
  endfacet
  facet normal -0.000000 0.000000 1.000000
    outer loop
      vertex -17.117583 3.638455 30.000000
      vertex -19.079583 4.000000 30.000000
      vertex -19.079583 -4.000000 30.000000
    endloop
  endfacet
  facet normal 0.000000 0.000000 1.000000
    outer loop
      vertex -19.079583 -4.000000 30.000000
      vertex -17.000110 -4.000000 30.000000
      vertex -17.117583 -3.638455 30.000000
    endloop
  endfacet
  facet normal 0.000000 -0.000000 1.000000
    outer loop
      vertex -17.500000 0.000000 30.000000
      vertex -19.079583 -4.000000 30.000000
      vertex -17.117583 -3.638455 30.000000
    endloop
  endfacet
  facet normal -0.000000 0.000000 1.000000
    outer loop
      vertex -17.500000 0.000000 30.000000
      vertex -17.117583 3.638455 30.000000
      vertex -19.079583 -4.000000 30.000000
    endloop
  endfacet
  facet normal 0.000000 0.000000 1.000000
    outer loop
      vertex -17.000110 4.000000 30.000000
      vertex -19.079583 4.000000 30.000000
      vertex -17.117583 3.638455 30.000000
    endloop
  endfacet
  facet normal 0.000000 0.000000 1.000000
    outer loop
      vertex -19.079583 4.000000 30.000000
      vertex -19.500000 0.000000 30.000000
      vertex -19.079583 -4.000000 30.000000
    endloop
  endfacet
  facet normal -0.000000 1.000000 0.000000
    outer loop
      vertex -17.000110 -4.000000 30.000000
      vertex -19.079583 -4.000000 30.000000
      vertex -17.000110 -4.000000 116.000000
    endloop
  endfacet
  facet normal 0.000000 1.000000 0.000000
    outer loop
      vertex -17.000110 -4.000000 116.000000
      vertex -19.079583 -4.000000 30.000000
      vertex -19.079583 -4.000000 114.000000
    endloop
  endfacet
  facet normal 0.000000 1.000000 0.000000
    outer loop
      vertex -17.000110 -4.000000 116.000000
      vertex -19.079583 -4.000000 114.000000
      vertex -19.113052 -4.000000 114.026776
    endloop
  endfacet
  facet normal 0.000000 1.000000 0.000000
    outer loop
      vertex -19.113052 -4.000000 114.026776
      vertex -21.579583 -4.000000 116.000000
      vertex -17.000110 -4.000000 116.000000
    endloop
  endfacet
  facet normal -0.623353 -0.065517 -0.779191
    outer loop
      vertex -19.073878 -4.054278 114.000000
      vertex -19.113052 -4.000000 114.026776
      vertex -19.079583 -4.000000 114.000000
    endloop
  endfacet
  facet normal -0.623353 -0.065517 -0.779191
    outer loop
      vertex -21.579583 -4.000000 116.000000
      vertex -19.113052 -4.000000 114.026776
      vertex -21.519247 -4.574057 116.000000
    endloop
  endfacet
  facet normal -0.623353 -0.065517 -0.779191
    outer loop
      vertex -21.519247 -4.574057 116.000000
      vertex -19.113052 -4.000000 114.026776
      vertex -19.073878 -4.054278 114.000000
    endloop
  endfacet
  facet normal -0.596109 -0.193688 -0.779191
    outer loop
      vertex -17.814136 -7.931365 114.000000
      vertex -21.519247 -4.574057 116.000000
      vertex -19.073878 -4.054278 114.000000
    endloop
  endfacet
  facet normal -0.596109 -0.193688 -0.779191
    outer loop
      vertex -20.098000 -8.948206 116.000000
      vertex -21.519247 -4.574057 116.000000
      vertex -17.814136 -7.931365 114.000000
    endloop
  endfacet
  facet normal -0.542813 -0.313393 -0.779191
    outer loop
      vertex -15.775831 -11.461812 114.000000
      vertex -20.098000 -8.948206 116.000000
      vertex -17.814136 -7.931365 114.000000
    endloop
  endfacet
  facet normal -0.542813 -0.313393 -0.779191
    outer loop
      vertex -17.798374 -12.931276 116.000000
      vertex -20.098000 -8.948206 116.000000
      vertex -15.775831 -11.461812 114.000000
    endloop
  endfacet
  facet normal -0.465793 -0.419402 -0.779191
    outer loop
      vertex -13.048047 -14.491324 114.000000
      vertex -17.798374 -12.931276 116.000000
      vertex -15.775831 -11.461812 114.000000
    endloop
  endfacet
  facet normal -0.465793 -0.419402 -0.779191
    outer loop
      vertex -14.720873 -16.349186 116.000000
      vertex -17.798374 -12.931276 116.000000
      vertex -13.048047 -14.491324 114.000000
    endloop
  endfacet
  facet normal -0.368416 -0.507081 -0.779191
    outer loop
      vertex -9.750000 -16.887495 114.000000
      vertex -14.720873 -16.349186 116.000000
      vertex -13.048047 -14.491324 114.000000
    endloop
  endfacet
  facet normal -0.368416 -0.507081 -0.779191
    outer loop
      vertex -11.000000 -19.052559 116.000000
      vertex -14.720873 -16.349186 116.000000
      vertex -9.750000 -16.887495 114.000000
    endloop
  endfacet
  facet normal -0.254937 -0.572598 -0.779191
    outer loop
      vertex -6.025831 -18.545602 114.000000
      vertex -11.000000 -19.052559 116.000000
      vertex -9.750000 -16.887495 114.000000
    endloop
  endfacet
  facet normal -0.254937 -0.572598 -0.779191
    outer loop
      vertex -6.798374 -20.923243 116.000000
      vertex -11.000000 -19.052559 116.000000
      vertex -6.025831 -18.545602 114.000000
    endloop
  endfacet
  facet normal -0.130316 -0.613090 -0.779191
    outer loop
      vertex -2.038305 -19.393177 114.000000
      vertex -6.798374 -20.923243 116.000000
      vertex -6.025831 -18.545602 114.000000
    endloop
  endfacet
  facet normal -0.130316 -0.613090 -0.779191
    outer loop
      vertex -2.299626 -21.879482 116.000000
      vertex -6.798374 -20.923243 116.000000
      vertex -2.038305 -19.393177 114.000000
    endloop
  endfacet
  facet normal -0.000000 -0.626786 -0.779191
    outer loop
      vertex -2.299626 -21.879482 116.000000
      vertex -2.038305 -19.393177 114.000000
      vertex 2.299626 -21.879482 116.000000
    endloop
  endfacet
  facet normal 0.000000 -0.626786 -0.779191
    outer loop
      vertex 2.299626 -21.879482 116.000000
      vertex -2.038305 -19.393177 114.000000
      vertex 2.038305 -19.393177 114.000000
    endloop
  endfacet
  facet normal 0.130316 -0.613090 -0.779191
    outer loop
      vertex 2.299626 -21.879482 116.000000
      vertex 2.038305 -19.393177 114.000000
      vertex 6.025831 -18.545602 114.000000
    endloop
  endfacet
  facet normal 0.130316 -0.613090 -0.779191
    outer loop
      vertex 6.798374 -20.923243 116.000000
      vertex 2.299626 -21.879482 116.000000
      vertex 6.025831 -18.545602 114.000000
    endloop
  endfacet
  facet normal 0.254937 -0.572598 -0.779191
    outer loop
      vertex 6.798374 -20.923243 116.000000
      vertex 6.025831 -18.545602 114.000000
      vertex 9.750000 -16.887495 114.000000
    endloop
  endfacet
  facet normal 0.254937 -0.572598 -0.779191
    outer loop
      vertex 11.000000 -19.052559 116.000000
      vertex 6.798374 -20.923243 116.000000
      vertex 9.750000 -16.887495 114.000000
    endloop
  endfacet
  facet normal 0.368416 -0.507081 -0.779191
    outer loop
      vertex 11.000000 -19.052559 116.000000
      vertex 9.750000 -16.887495 114.000000
      vertex 13.048047 -14.491324 114.000000
    endloop
  endfacet
  facet normal 0.368416 -0.507081 -0.779191
    outer loop
      vertex 14.720873 -16.349186 116.000000
      vertex 11.000000 -19.052559 116.000000
      vertex 13.048047 -14.491324 114.000000
    endloop
  endfacet
  facet normal 0.465793 -0.419402 -0.779191
    outer loop
      vertex 14.720873 -16.349186 116.000000
      vertex 13.048047 -14.491324 114.000000
      vertex 15.775831 -11.461812 114.000000
    endloop
  endfacet
  facet normal 0.465793 -0.419402 -0.779191
    outer loop
      vertex 17.798374 -12.931276 116.000000
      vertex 14.720873 -16.349186 116.000000
      vertex 15.775831 -11.461812 114.000000
    endloop
  endfacet
  facet normal 0.542813 -0.313393 -0.779191
    outer loop
      vertex 17.798374 -12.931276 116.000000
      vertex 15.775831 -11.461812 114.000000
      vertex 17.814136 -7.931365 114.000000
    endloop
  endfacet
  facet normal 0.542813 -0.313393 -0.779191
    outer loop
      vertex 20.098000 -8.948206 116.000000
      vertex 17.798374 -12.931276 116.000000
      vertex 17.814136 -7.931365 114.000000
    endloop
  endfacet
  facet normal 0.596109 -0.193688 -0.779191
    outer loop
      vertex 20.098000 -8.948206 116.000000
      vertex 17.814136 -7.931365 114.000000
      vertex 19.073878 -4.054278 114.000000
    endloop
  endfacet
  facet normal 0.596109 -0.193688 -0.779191
    outer loop
      vertex 20.098000 -8.948206 116.000000
      vertex 19.073878 -4.054278 114.000000
      vertex 21.519247 -4.574057 116.000000
    endloop
  endfacet
  facet normal 0.623353 -0.065517 -0.779191
    outer loop
      vertex 19.073878 -4.054278 114.000000
      vertex 19.079583 -4.000000 114.000000
      vertex 21.519247 -4.574057 116.000000
    endloop
  endfacet
  facet normal 0.623353 -0.065517 -0.779191
    outer loop
      vertex 21.519247 -4.574057 116.000000
      vertex 19.079583 -4.000000 114.000000
      vertex 21.265826 -4.000000 115.748994
    endloop
  endfacet
  facet normal 0.000000 1.000000 0.000000
    outer loop
      vertex 21.579583 -4.000000 116.000000
      vertex 21.265826 -4.000000 115.748994
      vertex 17.000110 -4.000000 116.000000
    endloop
  endfacet
  facet normal 0.000000 1.000000 0.000000
    outer loop
      vertex 17.000110 -4.000000 116.000000
      vertex 21.265826 -4.000000 115.748994
      vertex 19.079583 -4.000000 114.000000
    endloop
  endfacet
  facet normal 0.000000 1.000000 0.000000
    outer loop
      vertex 17.000110 -4.000000 116.000000
      vertex 19.079583 -4.000000 114.000000
      vertex 19.079583 -4.000000 30.000000
    endloop
  endfacet
  facet normal 0.000000 1.000000 -0.000000
    outer loop
      vertex 17.000110 -4.000000 116.000000
      vertex 19.079583 -4.000000 30.000000
      vertex 17.000110 -4.000000 30.000000
    endloop
  endfacet
  facet normal 0.000000 0.000000 1.000000
    outer loop
      vertex 19.079583 -4.000000 30.000000
      vertex 19.500000 0.000000 30.000000
      vertex 19.079583 4.000000 30.000000
    endloop
  endfacet
  facet normal 0.000000 0.000000 1.000000
    outer loop
      vertex 17.117583 3.638455 30.000000
      vertex 19.079583 -4.000000 30.000000
      vertex 19.079583 4.000000 30.000000
    endloop
  endfacet
  facet normal 0.000000 0.000000 1.000000
    outer loop
      vertex 17.000110 4.000000 30.000000
      vertex 17.117583 3.638455 30.000000
      vertex 19.079583 4.000000 30.000000
    endloop
  endfacet
  facet normal 0.000000 0.000000 1.000000
    outer loop
      vertex 17.117583 -3.638455 30.000000
      vertex 19.079583 -4.000000 30.000000
      vertex 17.500000 0.000000 30.000000
    endloop
  endfacet
  facet normal 0.000000 0.000000 1.000000
    outer loop
      vertex 17.000110 -4.000000 30.000000
      vertex 19.079583 -4.000000 30.000000
      vertex 17.117583 -3.638455 30.000000
    endloop
  endfacet
  facet normal 0.000000 0.000000 1.000000
    outer loop
      vertex 17.117583 3.638455 30.000000
      vertex 17.500000 0.000000 30.000000
      vertex 19.079583 -4.000000 30.000000
    endloop
  endfacet
  facet normal 0.000000 -1.000000 0.000000
    outer loop
      vertex 17.000110 4.000000 116.000000
      vertex 19.079583 4.000000 114.000000
      vertex 19.113052 4.000000 114.026776
    endloop
  endfacet
  facet normal 0.000000 -1.000000 0.000000
    outer loop
      vertex 19.079583 4.000000 30.000000
      vertex 19.079583 4.000000 114.000000
      vertex 17.000110 4.000000 116.000000
    endloop
  endfacet
  facet normal 0.000000 -1.000000 0.000000
    outer loop
      vertex 21.579583 4.000000 116.000000
      vertex 17.000110 4.000000 116.000000
      vertex 19.113052 4.000000 114.026776
    endloop
  endfacet
  facet normal 0.000000 -1.000000 0.000000
    outer loop
      vertex 17.000110 4.000000 116.000000
      vertex 17.000110 4.000000 30.000000
      vertex 19.079583 4.000000 30.000000
    endloop
  endfacet
  facet normal 0.623353 0.065517 -0.779191
    outer loop
      vertex 19.079583 4.000000 114.000000
      vertex 19.073878 4.054278 114.000000
      vertex 19.113052 4.000000 114.026776
    endloop
  endfacet
  facet normal 0.596109 0.193688 -0.779191
    outer loop
      vertex 19.073878 4.054278 114.000000
      vertex 17.814136 7.931365 114.000000
      vertex 21.519247 4.574057 116.000000
    endloop
  endfacet
  facet normal 0.623353 0.065517 -0.779191
    outer loop
      vertex 19.073878 4.054278 114.000000
      vertex 21.519247 4.574057 116.000000
      vertex 19.113052 4.000000 114.026776
    endloop
  endfacet
  facet normal 0.623353 0.065517 -0.779191
    outer loop
      vertex 19.113052 4.000000 114.026776
      vertex 21.519247 4.574057 116.000000
      vertex 21.579583 4.000000 116.000000
    endloop
  endfacet
  facet normal 0.542813 0.313393 -0.779191
    outer loop
      vertex 17.814136 7.931365 114.000000
      vertex 15.775831 11.461812 114.000000
      vertex 20.098000 8.948206 116.000000
    endloop
  endfacet
  facet normal 0.596109 0.193688 -0.779191
    outer loop
      vertex 21.519247 4.574057 116.000000
      vertex 17.814136 7.931365 114.000000
      vertex 20.098000 8.948206 116.000000
    endloop
  endfacet
  facet normal 0.465793 0.419402 -0.779191
    outer loop
      vertex 15.775831 11.461812 114.000000
      vertex 13.048047 14.491324 114.000000
      vertex 17.798374 12.931276 116.000000
    endloop
  endfacet
  facet normal 0.542813 0.313393 -0.779191
    outer loop
      vertex 20.098000 8.948206 116.000000
      vertex 15.775831 11.461812 114.000000
      vertex 17.798374 12.931276 116.000000
    endloop
  endfacet
  facet normal 0.368416 0.507081 -0.779191
    outer loop
      vertex 13.048047 14.491324 114.000000
      vertex 9.750000 16.887495 114.000000
      vertex 14.720873 16.349186 116.000000
    endloop
  endfacet
  facet normal 0.465793 0.419402 -0.779191
    outer loop
      vertex 17.798374 12.931276 116.000000
      vertex 13.048047 14.491324 114.000000
      vertex 14.720873 16.349186 116.000000
    endloop
  endfacet
  facet normal 0.254937 0.572598 -0.779191
    outer loop
      vertex 9.750000 16.887495 114.000000
      vertex 6.025831 18.545602 114.000000
      vertex 11.000000 19.052559 116.000000
    endloop
  endfacet
  facet normal 0.368416 0.507081 -0.779191
    outer loop
      vertex 14.720873 16.349186 116.000000
      vertex 9.750000 16.887495 114.000000
      vertex 11.000000 19.052559 116.000000
    endloop
  endfacet
  facet normal 0.130316 0.613090 -0.779191
    outer loop
      vertex 6.025831 18.545602 114.000000
      vertex 2.038305 19.393177 114.000000
      vertex 6.798374 20.923243 116.000000
    endloop
  endfacet
  facet normal 0.254937 0.572598 -0.779191
    outer loop
      vertex 11.000000 19.052559 116.000000
      vertex 6.025831 18.545602 114.000000
      vertex 6.798374 20.923243 116.000000
    endloop
  endfacet
  facet normal 0.000000 0.626786 -0.779191
    outer loop
      vertex -2.299626 21.879482 116.000000
      vertex 2.299626 21.879482 116.000000
      vertex -2.038305 19.393177 114.000000
    endloop
  endfacet
  facet normal 0.000000 0.626786 -0.779191
    outer loop
      vertex -2.038305 19.393177 114.000000
      vertex 2.299626 21.879482 116.000000
      vertex 2.038305 19.393177 114.000000
    endloop
  endfacet
  facet normal 0.130316 0.613090 -0.779191
    outer loop
      vertex 6.798374 20.923243 116.000000
      vertex 2.038305 19.393177 114.000000
      vertex 2.299626 21.879482 116.000000
    endloop
  endfacet
  facet normal -0.130316 0.613090 -0.779191
    outer loop
      vertex -2.038305 19.393177 114.000000
      vertex -6.025831 18.545602 114.000000
      vertex -2.299626 21.879482 116.000000
    endloop
  endfacet
  facet normal -0.254937 0.572598 -0.779191
    outer loop
      vertex -6.025831 18.545602 114.000000
      vertex -9.750000 16.887495 114.000000
      vertex -6.798374 20.923243 116.000000
    endloop
  endfacet
  facet normal -0.130316 0.613090 -0.779191
    outer loop
      vertex -6.025831 18.545602 114.000000
      vertex -6.798374 20.923243 116.000000
      vertex -2.299626 21.879482 116.000000
    endloop
  endfacet
  facet normal -0.368416 0.507081 -0.779191
    outer loop
      vertex -9.750000 16.887495 114.000000
      vertex -13.048047 14.491324 114.000000
      vertex -11.000000 19.052559 116.000000
    endloop
  endfacet
  facet normal -0.254937 0.572598 -0.779191
    outer loop
      vertex -9.750000 16.887495 114.000000
      vertex -11.000000 19.052559 116.000000
      vertex -6.798374 20.923243 116.000000
    endloop
  endfacet
  facet normal -0.465793 0.419402 -0.779191
    outer loop
      vertex -13.048047 14.491324 114.000000
      vertex -15.775831 11.461812 114.000000
      vertex -14.720873 16.349186 116.000000
    endloop
  endfacet
  facet normal -0.368416 0.507081 -0.779191
    outer loop
      vertex -13.048047 14.491324 114.000000
      vertex -14.720873 16.349186 116.000000
      vertex -11.000000 19.052559 116.000000
    endloop
  endfacet
  facet normal -0.542813 0.313393 -0.779191
    outer loop
      vertex -15.775831 11.461812 114.000000
      vertex -17.814136 7.931365 114.000000
      vertex -17.798374 12.931276 116.000000
    endloop
  endfacet
  facet normal -0.465793 0.419402 -0.779191
    outer loop
      vertex -15.775831 11.461812 114.000000
      vertex -17.798374 12.931276 116.000000
      vertex -14.720873 16.349186 116.000000
    endloop
  endfacet
  facet normal -0.596109 0.193688 -0.779191
    outer loop
      vertex -19.073878 4.054278 114.000000
      vertex -20.098000 8.948206 116.000000
      vertex -17.814136 7.931365 114.000000
    endloop
  endfacet
  facet normal -0.542813 0.313393 -0.779191
    outer loop
      vertex -17.814136 7.931365 114.000000
      vertex -20.098000 8.948206 116.000000
      vertex -17.798374 12.931276 116.000000
    endloop
  endfacet
  facet normal -0.623353 0.065517 -0.779191
    outer loop
      vertex -21.519247 4.574057 116.000000
      vertex -19.073878 4.054278 114.000000
      vertex -21.265826 4.000000 115.748994
    endloop
  endfacet
  facet normal -0.623353 0.065517 -0.779191
    outer loop
      vertex -21.265826 4.000000 115.748994
      vertex -19.073878 4.054278 114.000000
      vertex -19.079583 4.000000 114.000000
    endloop
  endfacet
  facet normal -0.596109 0.193688 -0.779191
    outer loop
      vertex -19.073878 4.054278 114.000000
      vertex -21.519247 4.574057 116.000000
      vertex -20.098000 8.948206 116.000000
    endloop
  endfacet
  facet normal 0.000000 -1.000000 0.000000
    outer loop
      vertex -17.000110 4.000000 30.000000
      vertex -19.079583 4.000000 114.000000
      vertex -19.079583 4.000000 30.000000
    endloop
  endfacet
  facet normal 0.000000 -1.000000 0.000000
    outer loop
      vertex -17.000110 4.000000 116.000000
      vertex -19.079583 4.000000 114.000000
      vertex -17.000110 4.000000 30.000000
    endloop
  endfacet
  facet normal -0.000000 -1.000000 0.000000
    outer loop
      vertex -21.265826 4.000000 115.748994
      vertex -19.079583 4.000000 114.000000
      vertex -17.000110 4.000000 116.000000
    endloop
  endfacet
  facet normal 0.000000 -1.000000 0.000000
    outer loop
      vertex -21.579583 4.000000 116.000000
      vertex -21.265826 4.000000 115.748994
      vertex -17.000110 4.000000 116.000000
    endloop
  endfacet
  facet normal 0.951057 -0.309017 0.000000
    outer loop
      vertex -15.987046 7.117891 5.000000
      vertex -15.987046 7.117891 116.000000
      vertex -17.000110 4.000000 116.000000
    endloop
  endfacet
  facet normal 0.951057 -0.309017 -0.000000
    outer loop
      vertex -17.117583 3.638455 30.000000
      vertex -15.987046 7.117891 5.000000
      vertex -17.000110 4.000000 30.000000
    endloop
  endfacet
  facet normal 0.951057 -0.309017 0.000000
    outer loop
      vertex -17.000110 4.000000 30.000000
      vertex -15.987046 7.117891 5.000000
      vertex -17.000110 4.000000 116.000000
    endloop
  endfacet
  facet normal 0.951057 -0.309017 0.000000
    outer loop
      vertex -17.117583 3.638455 5.000000
      vertex -15.987046 7.117891 5.000000
      vertex -17.117583 3.638455 30.000000
    endloop
  endfacet
  facet normal 0.994522 -0.104528 0.000000
    outer loop
      vertex -17.117583 3.638455 5.000000
      vertex -17.117583 3.638455 30.000000
      vertex -17.500000 0.000000 30.000000
    endloop
  endfacet
  facet normal 0.994522 -0.104528 0.000000
    outer loop
      vertex -17.500000 0.000000 5.000000
      vertex -17.117583 3.638455 5.000000
      vertex -17.500000 0.000000 30.000000
    endloop
  endfacet
  facet normal 0.994522 0.104528 0.000000
    outer loop
      vertex -17.500000 0.000000 30.000000
      vertex -17.117583 -3.638455 30.000000
      vertex -17.117583 -3.638455 5.000000
    endloop
  endfacet
  facet normal 0.994522 0.104528 0.000000
    outer loop
      vertex -17.500000 0.000000 5.000000
      vertex -17.500000 0.000000 30.000000
      vertex -17.117583 -3.638455 5.000000
    endloop
  endfacet
  facet normal 0.951057 0.309017 0.000000
    outer loop
      vertex -15.987046 -7.117891 116.000000
      vertex -17.000110 -4.000000 30.000000
      vertex -17.000110 -4.000000 116.000000
    endloop
  endfacet
  facet normal 0.951057 0.309017 0.000000
    outer loop
      vertex -15.987046 -7.117891 5.000000
      vertex -17.000110 -4.000000 30.000000
      vertex -15.987046 -7.117891 116.000000
    endloop
  endfacet
  facet normal 0.951057 0.309017 -0.000000
    outer loop
      vertex -17.117583 -3.638455 30.000000
      vertex -17.000110 -4.000000 30.000000
      vertex -15.987046 -7.117891 5.000000
    endloop
  endfacet
  facet normal 0.951057 0.309017 0.000000
    outer loop
      vertex -17.117583 -3.638455 5.000000
      vertex -17.117583 -3.638455 30.000000
      vertex -15.987046 -7.117891 5.000000
    endloop
  endfacet
  facet normal 0.000000 0.000000 1.000000
    outer loop
      vertex -17.000110 -4.000000 116.000000
      vertex -21.579583 -4.000000 116.000000
      vertex -21.519247 -4.574057 116.000000
    endloop
  endfacet
  facet normal 0.000000 0.000000 1.000000
    outer loop
      vertex -17.798374 -12.931276 116.000000
      vertex -17.000110 -4.000000 116.000000
      vertex -20.098000 -8.948206 116.000000
    endloop
  endfacet
  facet normal 0.000000 0.000000 1.000000
    outer loop
      vertex -20.098000 -8.948206 116.000000
      vertex -17.000110 -4.000000 116.000000
      vertex -21.519247 -4.574057 116.000000
    endloop
  endfacet
  facet normal 0.000000 0.000000 1.000000
    outer loop
      vertex -14.720873 -16.349186 116.000000
      vertex -17.000110 -4.000000 116.000000
      vertex -17.798374 -12.931276 116.000000
    endloop
  endfacet
  facet normal -0.000000 -0.000000 1.000000
    outer loop
      vertex -15.987046 -7.117891 116.000000
      vertex -17.000110 -4.000000 116.000000
      vertex -14.720873 -16.349186 116.000000
    endloop
  endfacet
  facet normal -0.000000 -0.000000 1.000000
    outer loop
      vertex -14.157797 -10.286242 116.000000
      vertex -15.987046 -7.117891 116.000000
      vertex -11.000000 -19.052559 116.000000
    endloop
  endfacet
  facet normal -0.000000 -0.000000 1.000000
    outer loop
      vertex -8.750000 -15.155445 116.000000
      vertex -11.709786 -13.005034 116.000000
      vertex -6.798374 -20.923243 116.000000
    endloop
  endfacet
  facet normal -0.000000 -0.000000 1.000000
    outer loop
      vertex -5.407797 -16.643489 116.000000
      vertex -8.750000 -15.155445 116.000000
      vertex -2.299626 -21.879482 116.000000
    endloop
  endfacet
  facet normal -0.000000 -0.000000 1.000000
    outer loop
      vertex -1.829248 -17.404133 116.000000
      vertex -5.407797 -16.643489 116.000000
      vertex 2.299626 -21.879482 116.000000
    endloop
  endfacet
  facet normal 0.000000 -0.000000 1.000000
    outer loop
      vertex 5.407797 -16.643489 116.000000
      vertex 1.829248 -17.404133 116.000000
      vertex 6.798374 -20.923243 116.000000
    endloop
  endfacet
  facet normal 0.000000 -0.000000 1.000000
    outer loop
      vertex 8.750000 -15.155445 116.000000
      vertex 5.407797 -16.643489 116.000000
      vertex 11.000000 -19.052559 116.000000
    endloop
  endfacet
  facet normal 0.000000 -0.000000 1.000000
    outer loop
      vertex 11.709786 -13.005034 116.000000
      vertex 8.750000 -15.155445 116.000000
      vertex 14.720873 -16.349186 116.000000
    endloop
  endfacet
  facet normal 0.000000 -0.000000 1.000000
    outer loop
      vertex 14.157797 -10.286242 116.000000
      vertex 11.709786 -13.005034 116.000000
      vertex 17.798374 -12.931276 116.000000
    endloop
  endfacet
  facet normal 0.000000 -0.000000 1.000000
    outer loop
      vertex 15.987046 -7.117891 116.000000
      vertex 14.157797 -10.286242 116.000000
      vertex 20.098000 -8.948206 116.000000
    endloop
  endfacet
  facet normal 0.000000 0.000000 1.000000
    outer loop
      vertex 21.579583 -4.000000 116.000000
      vertex 17.000110 -4.000000 116.000000
      vertex 21.519247 -4.574057 116.000000
    endloop
  endfacet
  facet normal 0.000000 0.000000 1.000000
    outer loop
      vertex 21.519247 -4.574057 116.000000
      vertex 15.987046 -7.117891 116.000000
      vertex 20.098000 -8.948206 116.000000
    endloop
  endfacet
  facet normal 0.000000 0.000000 1.000000
    outer loop
      vertex 20.098000 -8.948206 116.000000
      vertex 14.157797 -10.286242 116.000000
      vertex 17.798374 -12.931276 116.000000
    endloop
  endfacet
  facet normal 0.000000 0.000000 1.000000
    outer loop
      vertex 17.798374 -12.931276 116.000000
      vertex 11.709786 -13.005034 116.000000
      vertex 14.720873 -16.349186 116.000000
    endloop
  endfacet
  facet normal -0.000000 0.000000 1.000000
    outer loop
      vertex 14.720873 -16.349186 116.000000
      vertex 8.750000 -15.155445 116.000000
      vertex 11.000000 -19.052559 116.000000
    endloop
  endfacet
  facet normal -0.000000 0.000000 1.000000
    outer loop
      vertex 11.000000 -19.052559 116.000000
      vertex 5.407797 -16.643489 116.000000
      vertex 6.798374 -20.923243 116.000000
    endloop
  endfacet
  facet normal -0.000000 0.000000 1.000000
    outer loop
      vertex 6.798374 -20.923243 116.000000
      vertex 1.829248 -17.404133 116.000000
      vertex 2.299626 -21.879482 116.000000
    endloop
  endfacet
  facet normal 0.000000 -0.000000 1.000000
    outer loop
      vertex 1.829248 -17.404133 116.000000
      vertex -1.829248 -17.404133 116.000000
      vertex 2.299626 -21.879482 116.000000
    endloop
  endfacet
  facet normal -0.000000 0.000000 1.000000
    outer loop
      vertex 2.299626 -21.879482 116.000000
      vertex -5.407797 -16.643489 116.000000
      vertex -2.299626 -21.879482 116.000000
    endloop
  endfacet
  facet normal 0.000000 0.000000 1.000000
    outer loop
      vertex -2.299626 -21.879482 116.000000
      vertex -8.750000 -15.155445 116.000000
      vertex -6.798374 -20.923243 116.000000
    endloop
  endfacet
  facet normal 0.000000 0.000000 1.000000
    outer loop
      vertex -6.798374 -20.923243 116.000000
      vertex -11.709786 -13.005034 116.000000
      vertex -11.000000 -19.052559 116.000000
    endloop
  endfacet
  facet normal -0.000000 -0.000000 1.000000
    outer loop
      vertex -11.709786 -13.005034 116.000000
      vertex -14.157797 -10.286242 116.000000
      vertex -11.000000 -19.052559 116.000000
    endloop
  endfacet
  facet normal 0.000000 0.000000 1.000000
    outer loop
      vertex -11.000000 -19.052559 116.000000
      vertex -15.987046 -7.117891 116.000000
      vertex -14.720873 -16.349186 116.000000
    endloop
  endfacet
  facet normal 0.000000 -0.000000 1.000000
    outer loop
      vertex 17.000110 -4.000000 116.000000
      vertex 15.987046 -7.117891 116.000000
      vertex 21.519247 -4.574057 116.000000
    endloop
  endfacet
  facet normal 0.623353 -0.065517 -0.779191
    outer loop
      vertex 21.519247 -4.574057 116.000000
      vertex 21.265826 -4.000000 115.748994
      vertex 21.579583 -4.000000 116.000000
    endloop
  endfacet
  facet normal -0.951057 0.309017 0.000000
    outer loop
      vertex 17.000110 -4.000000 116.000000
      vertex 17.000110 -4.000000 30.000000
      vertex 15.987046 -7.117891 116.000000
    endloop
  endfacet
  facet normal -0.951057 0.309017 0.000000
    outer loop
      vertex 17.117583 -3.638455 5.000000
      vertex 17.000110 -4.000000 30.000000
      vertex 17.117583 -3.638455 30.000000
    endloop
  endfacet
  facet normal -0.951057 0.309017 -0.000000
    outer loop
      vertex 15.987046 -7.117891 116.000000
      vertex 17.000110 -4.000000 30.000000
      vertex 17.117583 -3.638455 5.000000
    endloop
  endfacet
  facet normal -0.951057 0.309017 0.000000
    outer loop
      vertex 15.987046 -7.117891 116.000000
      vertex 17.117583 -3.638455 5.000000
      vertex 15.987046 -7.117891 5.000000
    endloop
  endfacet
  facet normal -0.994522 0.104528 0.000000
    outer loop
      vertex 17.500000 0.000000 30.000000
      vertex 17.500000 0.000000 5.000000
      vertex 17.117583 -3.638455 30.000000
    endloop
  endfacet
  facet normal -0.994522 0.104528 0.000000
    outer loop
      vertex 17.117583 -3.638455 30.000000
      vertex 17.500000 0.000000 5.000000
      vertex 17.117583 -3.638455 5.000000
    endloop
  endfacet
  facet normal -0.994522 -0.104528 0.000000
    outer loop
      vertex 17.500000 0.000000 30.000000
      vertex 17.117583 3.638455 30.000000
      vertex 17.500000 0.000000 5.000000
    endloop
  endfacet
  facet normal -0.994522 -0.104528 0.000000
    outer loop
      vertex 17.500000 0.000000 5.000000
      vertex 17.117583 3.638455 30.000000
      vertex 17.117583 3.638455 5.000000
    endloop
  endfacet
  facet normal -0.951057 -0.309017 0.000000
    outer loop
      vertex 17.117583 3.638455 30.000000
      vertex 17.000110 4.000000 30.000000
      vertex 17.117583 3.638455 5.000000
    endloop
  endfacet
  facet normal -0.951057 -0.309017 0.000000
    outer loop
      vertex 15.987046 7.117891 116.000000
      vertex 17.000110 4.000000 30.000000
      vertex 17.000110 4.000000 116.000000
    endloop
  endfacet
  facet normal -0.951057 -0.309017 -0.000000
    outer loop
      vertex 17.117583 3.638455 5.000000
      vertex 17.000110 4.000000 30.000000
      vertex 15.987046 7.117891 116.000000
    endloop
  endfacet
  facet normal -0.951057 -0.309017 0.000000
    outer loop
      vertex 17.117583 3.638455 5.000000
      vertex 15.987046 7.117891 116.000000
      vertex 15.987046 7.117891 5.000000
    endloop
  endfacet
  facet normal 0.000000 -0.000000 1.000000
    outer loop
      vertex -21.519247 4.574057 116.000000
      vertex -21.579583 4.000000 116.000000
      vertex -17.000110 4.000000 116.000000
    endloop
  endfacet
  facet normal 0.000000 0.000000 1.000000
    outer loop
      vertex -14.157797 10.286242 116.000000
      vertex -21.519247 4.574057 116.000000
      vertex -15.987046 7.117891 116.000000
    endloop
  endfacet
  facet normal 0.000000 0.000000 1.000000
    outer loop
      vertex -15.987046 7.117891 116.000000
      vertex -21.519247 4.574057 116.000000
      vertex -17.000110 4.000000 116.000000
    endloop
  endfacet
  facet normal 0.000000 0.000000 1.000000
    outer loop
      vertex -11.709786 13.005034 116.000000
      vertex -21.519247 4.574057 116.000000
      vertex -14.157797 10.286242 116.000000
    endloop
  endfacet
  facet normal 0.000000 0.000000 1.000000
    outer loop
      vertex -2.299626 21.879482 116.000000
      vertex -21.519247 4.574057 116.000000
      vertex -11.709786 13.005034 116.000000
    endloop
  endfacet
  facet normal 0.000000 0.000000 1.000000
    outer loop
      vertex -2.299626 21.879482 116.000000
      vertex -11.709786 13.005034 116.000000
      vertex -8.750000 15.155445 116.000000
    endloop
  endfacet
  facet normal 0.000000 0.000000 1.000000
    outer loop
      vertex 2.299626 21.879482 116.000000
      vertex -8.750000 15.155445 116.000000
      vertex -5.407797 16.643489 116.000000
    endloop
  endfacet
  facet normal 0.000000 0.000000 1.000000
    outer loop
      vertex 6.798374 20.923243 116.000000
      vertex -5.407797 16.643489 116.000000
      vertex -1.829248 17.404133 116.000000
    endloop
  endfacet
  facet normal 0.000000 0.000000 1.000000
    outer loop
      vertex 11.000000 19.052559 116.000000
      vertex -1.829248 17.404133 116.000000
      vertex 1.829248 17.404133 116.000000
    endloop
  endfacet
  facet normal 0.000000 0.000000 1.000000
    outer loop
      vertex 14.720873 16.349186 116.000000
      vertex 1.829248 17.404133 116.000000
      vertex 5.407797 16.643489 116.000000
    endloop
  endfacet
  facet normal 0.000000 0.000000 1.000000
    outer loop
      vertex 17.798374 12.931276 116.000000
      vertex 5.407797 16.643489 116.000000
      vertex 8.750000 15.155445 116.000000
    endloop
  endfacet
  facet normal 0.000000 0.000000 1.000000
    outer loop
      vertex 20.098000 8.948206 116.000000
      vertex 8.750000 15.155445 116.000000
      vertex 11.709786 13.005034 116.000000
    endloop
  endfacet
  facet normal 0.000000 0.000000 1.000000
    outer loop
      vertex 21.579583 4.000000 116.000000
      vertex 11.709786 13.005034 116.000000
      vertex 14.157797 10.286242 116.000000
    endloop
  endfacet
  facet normal 0.000000 0.000000 1.000000
    outer loop
      vertex 21.579583 4.000000 116.000000
      vertex 14.157797 10.286242 116.000000
      vertex 15.987046 7.117891 116.000000
    endloop
  endfacet
  facet normal -0.000000 0.000000 1.000000
    outer loop
      vertex 21.579583 4.000000 116.000000
      vertex 15.987046 7.117891 116.000000
      vertex 17.000110 4.000000 116.000000
    endloop
  endfacet
  facet normal -0.000000 -0.000000 1.000000
    outer loop
      vertex 21.519247 4.574057 116.000000
      vertex 11.709786 13.005034 116.000000
      vertex 21.579583 4.000000 116.000000
    endloop
  endfacet
  facet normal -0.000000 -0.000000 1.000000
    outer loop
      vertex 20.098000 8.948206 116.000000
      vertex 11.709786 13.005034 116.000000
      vertex 21.519247 4.574057 116.000000
    endloop
  endfacet
  facet normal -0.000000 -0.000000 1.000000
    outer loop
      vertex 17.798374 12.931276 116.000000
      vertex 8.750000 15.155445 116.000000
      vertex 20.098000 8.948206 116.000000
    endloop
  endfacet
  facet normal -0.000000 -0.000000 1.000000
    outer loop
      vertex 14.720873 16.349186 116.000000
      vertex 5.407797 16.643489 116.000000
      vertex 17.798374 12.931276 116.000000
    endloop
  endfacet
  facet normal 0.000000 -0.000000 1.000000
    outer loop
      vertex 11.000000 19.052559 116.000000
      vertex 1.829248 17.404133 116.000000
      vertex 14.720873 16.349186 116.000000
    endloop
  endfacet
  facet normal 0.000000 -0.000000 1.000000
    outer loop
      vertex 6.798374 20.923243 116.000000
      vertex -1.829248 17.404133 116.000000
      vertex 11.000000 19.052559 116.000000
    endloop
  endfacet
  facet normal 0.000000 -0.000000 1.000000
    outer loop
      vertex 2.299626 21.879482 116.000000
      vertex -5.407797 16.643489 116.000000
      vertex 6.798374 20.923243 116.000000
    endloop
  endfacet
  facet normal 0.000000 -0.000000 1.000000
    outer loop
      vertex -2.299626 21.879482 116.000000
      vertex -8.750000 15.155445 116.000000
      vertex 2.299626 21.879482 116.000000
    endloop
  endfacet
  facet normal 0.000000 -0.000000 1.000000
    outer loop
      vertex -6.798374 20.923243 116.000000
      vertex -21.519247 4.574057 116.000000
      vertex -2.299626 21.879482 116.000000
    endloop
  endfacet
  facet normal 0.000000 -0.000000 1.000000
    outer loop
      vertex -11.000000 19.052559 116.000000
      vertex -21.519247 4.574057 116.000000
      vertex -6.798374 20.923243 116.000000
    endloop
  endfacet
  facet normal 0.000000 -0.000000 1.000000
    outer loop
      vertex -14.720873 16.349186 116.000000
      vertex -21.519247 4.574057 116.000000
      vertex -11.000000 19.052559 116.000000
    endloop
  endfacet
  facet normal 0.000000 -0.000000 1.000000
    outer loop
      vertex -17.798374 12.931276 116.000000
      vertex -21.519247 4.574057 116.000000
      vertex -14.720873 16.349186 116.000000
    endloop
  endfacet
  facet normal 0.000000 -0.000000 1.000000
    outer loop
      vertex -20.098000 8.948206 116.000000
      vertex -21.519247 4.574057 116.000000
      vertex -17.798374 12.931276 116.000000
    endloop
  endfacet
  facet normal -0.623353 0.065517 -0.779191
    outer loop
      vertex -21.265826 4.000000 115.748994
      vertex -21.579583 4.000000 116.000000
      vertex -21.519247 4.574057 116.000000
    endloop
  endfacet
  facet normal 0.000000 0.000000 1.000000
    outer loop
      vertex -17.117583 -3.638455 5.000000
      vertex -15.987046 -7.117891 5.000000
      vertex -14.157797 -10.286242 5.000000
    endloop
  endfacet
  facet normal 0.000000 0.000000 1.000000
    outer loop
      vertex -8.750000 -15.155445 5.000000
      vertex -17.117583 -3.638455 5.000000
      vertex -11.709786 -13.005034 5.000000
    endloop
  endfacet
  facet normal 0.000000 0.000000 1.000000
    outer loop
      vertex -11.709786 -13.005034 5.000000
      vertex -17.117583 -3.638455 5.000000
      vertex -14.157797 -10.286242 5.000000
    endloop
  endfacet
  facet normal 0.000000 0.000000 1.000000
    outer loop
      vertex -5.407797 -16.643489 5.000000
      vertex -17.117583 -3.638455 5.000000
      vertex -8.750000 -15.155445 5.000000
    endloop
  endfacet
  facet normal 0.000000 0.000000 1.000000
    outer loop
      vertex -1.829248 -17.404133 5.000000
      vertex -17.117583 -3.638455 5.000000
      vertex -5.407797 -16.643489 5.000000
    endloop
  endfacet
  facet normal -0.000000 0.000000 1.000000
    outer loop
      vertex 1.829248 -17.404133 5.000000
      vertex -17.117583 -3.638455 5.000000
      vertex -1.829248 -17.404133 5.000000
    endloop
  endfacet
  facet normal -0.000000 0.000000 1.000000
    outer loop
      vertex 5.407797 -16.643489 5.000000
      vertex -17.117583 -3.638455 5.000000
      vertex 1.829248 -17.404133 5.000000
    endloop
  endfacet
  facet normal -0.000000 0.000000 1.000000
    outer loop
      vertex 8.750000 -15.155445 5.000000
      vertex -17.117583 -3.638455 5.000000
      vertex 5.407797 -16.643489 5.000000
    endloop
  endfacet
  facet normal -0.000000 0.000000 1.000000
    outer loop
      vertex 11.709786 -13.005034 5.000000
      vertex -17.117583 -3.638455 5.000000
      vertex 8.750000 -15.155445 5.000000
    endloop
  endfacet
  facet normal -0.000000 0.000000 1.000000
    outer loop
      vertex 14.157797 -10.286242 5.000000
      vertex -17.117583 -3.638455 5.000000
      vertex 11.709786 -13.005034 5.000000
    endloop
  endfacet
  facet normal -0.000000 0.000000 1.000000
    outer loop
      vertex 15.987046 -7.117891 5.000000
      vertex -17.117583 -3.638455 5.000000
      vertex 14.157797 -10.286242 5.000000
    endloop
  endfacet
  facet normal 0.000000 0.000000 1.000000
    outer loop
      vertex 17.117583 -3.638455 5.000000
      vertex -17.117583 -3.638455 5.000000
      vertex 15.987046 -7.117891 5.000000
    endloop
  endfacet
  facet normal 0.000000 0.000000 1.000000
    outer loop
      vertex 17.500000 0.000000 5.000000
      vertex -17.117583 -3.638455 5.000000
      vertex 17.117583 -3.638455 5.000000
    endloop
  endfacet
  facet normal 0.000000 -0.000000 1.000000
    outer loop
      vertex 17.117583 3.638455 5.000000
      vertex -17.117583 -3.638455 5.000000
      vertex 17.500000 0.000000 5.000000
    endloop
  endfacet
  facet normal 0.000000 -0.000000 1.000000
    outer loop
      vertex 15.987046 7.117891 5.000000
      vertex -17.117583 -3.638455 5.000000
      vertex 17.117583 3.638455 5.000000
    endloop
  endfacet
  facet normal 0.000000 -0.000000 1.000000
    outer loop
      vertex 14.157797 10.286242 5.000000
      vertex -17.117583 -3.638455 5.000000
      vertex 15.987046 7.117891 5.000000
    endloop
  endfacet
  facet normal 0.000000 -0.000000 1.000000
    outer loop
      vertex 11.709786 13.005034 5.000000
      vertex -17.117583 -3.638455 5.000000
      vertex 14.157797 10.286242 5.000000
    endloop
  endfacet
  facet normal 0.000000 -0.000000 1.000000
    outer loop
      vertex 8.750000 15.155445 5.000000
      vertex -17.117583 -3.638455 5.000000
      vertex 11.709786 13.005034 5.000000
    endloop
  endfacet
  facet normal 0.000000 -0.000000 1.000000
    outer loop
      vertex 5.407797 16.643489 5.000000
      vertex -17.117583 -3.638455 5.000000
      vertex 8.750000 15.155445 5.000000
    endloop
  endfacet
  facet normal 0.000000 -0.000000 1.000000
    outer loop
      vertex 1.829248 17.404133 5.000000
      vertex -17.117583 -3.638455 5.000000
      vertex 5.407797 16.643489 5.000000
    endloop
  endfacet
  facet normal 0.000000 -0.000000 1.000000
    outer loop
      vertex -1.829248 17.404133 5.000000
      vertex -17.117583 -3.638455 5.000000
      vertex 1.829248 17.404133 5.000000
    endloop
  endfacet
  facet normal 0.000000 -0.000000 1.000000
    outer loop
      vertex -5.407797 16.643489 5.000000
      vertex -17.117583 -3.638455 5.000000
      vertex -1.829248 17.404133 5.000000
    endloop
  endfacet
  facet normal 0.000000 -0.000000 1.000000
    outer loop
      vertex -8.750000 15.155445 5.000000
      vertex -17.117583 -3.638455 5.000000
      vertex -5.407797 16.643489 5.000000
    endloop
  endfacet
  facet normal 0.000000 -0.000000 1.000000
    outer loop
      vertex -11.709786 13.005034 5.000000
      vertex -17.117583 -3.638455 5.000000
      vertex -8.750000 15.155445 5.000000
    endloop
  endfacet
  facet normal 0.000000 -0.000000 1.000000
    outer loop
      vertex -14.157797 10.286242 5.000000
      vertex -17.117583 -3.638455 5.000000
      vertex -11.709786 13.005034 5.000000
    endloop
  endfacet
  facet normal 0.000000 -0.000000 1.000000
    outer loop
      vertex -15.987046 7.117891 5.000000
      vertex -17.117583 -3.638455 5.000000
      vertex -14.157797 10.286242 5.000000
    endloop
  endfacet
  facet normal 0.000000 -0.000000 1.000000
    outer loop
      vertex -17.117583 3.638455 5.000000
      vertex -17.117583 -3.638455 5.000000
      vertex -15.987046 7.117891 5.000000
    endloop
  endfacet
  facet normal 0.000000 0.000000 1.000000
    outer loop
      vertex -17.500000 0.000000 5.000000
      vertex -17.117583 -3.638455 5.000000
      vertex -17.117583 3.638455 5.000000
    endloop
  endfacet
  facet normal 0.866025 -0.500000 0.000000
    outer loop
      vertex -14.157797 10.286242 5.000000
      vertex -14.157797 10.286242 116.000000
      vertex -15.987046 7.117891 116.000000
    endloop
  endfacet
  facet normal 0.866025 -0.500000 0.000000
    outer loop
      vertex -15.987046 7.117891 5.000000
      vertex -14.157797 10.286242 5.000000
      vertex -15.987046 7.117891 116.000000
    endloop
  endfacet
  facet normal 0.866025 0.500000 0.000000
    outer loop
      vertex -15.987046 -7.117891 116.000000
      vertex -14.157797 -10.286242 116.000000
      vertex -14.157797 -10.286242 5.000000
    endloop
  endfacet
  facet normal 0.866025 0.500000 0.000000
    outer loop
      vertex -15.987046 -7.117891 5.000000
      vertex -15.987046 -7.117891 116.000000
      vertex -14.157797 -10.286242 5.000000
    endloop
  endfacet
  facet normal 0.743145 0.669131 0.000000
    outer loop
      vertex -14.157797 -10.286242 116.000000
      vertex -11.709786 -13.005034 116.000000
      vertex -11.709786 -13.005034 5.000000
    endloop
  endfacet
  facet normal 0.743145 0.669131 0.000000
    outer loop
      vertex -14.157797 -10.286242 5.000000
      vertex -14.157797 -10.286242 116.000000
      vertex -11.709786 -13.005034 5.000000
    endloop
  endfacet
  facet normal 0.587785 0.809017 -0.000000
    outer loop
      vertex -8.750000 -15.155445 116.000000
      vertex -8.750000 -15.155445 5.000000
      vertex -11.709786 -13.005034 116.000000
    endloop
  endfacet
  facet normal 0.587785 0.809017 -0.000000
    outer loop
      vertex -11.709786 -13.005034 116.000000
      vertex -8.750000 -15.155445 5.000000
      vertex -11.709786 -13.005034 5.000000
    endloop
  endfacet
  facet normal 0.406736 0.913546 -0.000000
    outer loop
      vertex -5.407797 -16.643489 116.000000
      vertex -5.407797 -16.643489 5.000000
      vertex -8.750000 -15.155445 116.000000
    endloop
  endfacet
  facet normal 0.406736 0.913546 -0.000000
    outer loop
      vertex -8.750000 -15.155445 116.000000
      vertex -5.407797 -16.643489 5.000000
      vertex -8.750000 -15.155445 5.000000
    endloop
  endfacet
  facet normal 0.207912 0.978148 -0.000000
    outer loop
      vertex -1.829248 -17.404133 116.000000
      vertex -1.829248 -17.404133 5.000000
      vertex -5.407797 -16.643489 116.000000
    endloop
  endfacet
  facet normal 0.207912 0.978148 -0.000000
    outer loop
      vertex -5.407797 -16.643489 116.000000
      vertex -1.829248 -17.404133 5.000000
      vertex -5.407797 -16.643489 5.000000
    endloop
  endfacet
  facet normal 0.000000 1.000000 0.000000
    outer loop
      vertex 1.829248 -17.404133 116.000000
      vertex 1.829248 -17.404133 5.000000
      vertex -1.829248 -17.404133 116.000000
    endloop
  endfacet
  facet normal 0.000000 1.000000 -0.000000
    outer loop
      vertex -1.829248 -17.404133 116.000000
      vertex 1.829248 -17.404133 5.000000
      vertex -1.829248 -17.404133 5.000000
    endloop
  endfacet
  facet normal -0.207912 0.978148 0.000000
    outer loop
      vertex 5.407797 -16.643489 116.000000
      vertex 5.407797 -16.643489 5.000000
      vertex 1.829248 -17.404133 116.000000
    endloop
  endfacet
  facet normal -0.207912 0.978148 0.000000
    outer loop
      vertex 1.829248 -17.404133 116.000000
      vertex 5.407797 -16.643489 5.000000
      vertex 1.829248 -17.404133 5.000000
    endloop
  endfacet
  facet normal -0.406736 0.913546 0.000000
    outer loop
      vertex 8.750000 -15.155445 116.000000
      vertex 8.750000 -15.155445 5.000000
      vertex 5.407797 -16.643489 116.000000
    endloop
  endfacet
  facet normal -0.406736 0.913546 0.000000
    outer loop
      vertex 5.407797 -16.643489 116.000000
      vertex 8.750000 -15.155445 5.000000
      vertex 5.407797 -16.643489 5.000000
    endloop
  endfacet
  facet normal -0.587785 0.809017 0.000000
    outer loop
      vertex 11.709786 -13.005034 116.000000
      vertex 11.709786 -13.005034 5.000000
      vertex 8.750000 -15.155445 116.000000
    endloop
  endfacet
  facet normal -0.587785 0.809017 0.000000
    outer loop
      vertex 8.750000 -15.155445 116.000000
      vertex 11.709786 -13.005034 5.000000
      vertex 8.750000 -15.155445 5.000000
    endloop
  endfacet
  facet normal -0.743145 0.669131 0.000000
    outer loop
      vertex 14.157797 -10.286242 116.000000
      vertex 14.157797 -10.286242 5.000000
      vertex 11.709786 -13.005034 116.000000
    endloop
  endfacet
  facet normal -0.743145 0.669131 0.000000
    outer loop
      vertex 11.709786 -13.005034 116.000000
      vertex 14.157797 -10.286242 5.000000
      vertex 11.709786 -13.005034 5.000000
    endloop
  endfacet
  facet normal -0.866025 0.500000 0.000000
    outer loop
      vertex 15.987046 -7.117891 116.000000
      vertex 15.987046 -7.117891 5.000000
      vertex 14.157797 -10.286242 116.000000
    endloop
  endfacet
  facet normal -0.866025 0.500000 0.000000
    outer loop
      vertex 14.157797 -10.286242 116.000000
      vertex 15.987046 -7.117891 5.000000
      vertex 14.157797 -10.286242 5.000000
    endloop
  endfacet
  facet normal -0.866025 -0.500000 0.000000
    outer loop
      vertex 15.987046 7.117891 116.000000
      vertex 14.157797 10.286242 116.000000
      vertex 15.987046 7.117891 5.000000
    endloop
  endfacet
  facet normal -0.866025 -0.500000 0.000000
    outer loop
      vertex 15.987046 7.117891 5.000000
      vertex 14.157797 10.286242 116.000000
      vertex 14.157797 10.286242 5.000000
    endloop
  endfacet
  facet normal -0.743145 -0.669131 0.000000
    outer loop
      vertex 14.157797 10.286242 116.000000
      vertex 11.709786 13.005034 116.000000
      vertex 14.157797 10.286242 5.000000
    endloop
  endfacet
  facet normal -0.743145 -0.669131 0.000000
    outer loop
      vertex 14.157797 10.286242 5.000000
      vertex 11.709786 13.005034 116.000000
      vertex 11.709786 13.005034 5.000000
    endloop
  endfacet
  facet normal -0.587785 -0.809017 -0.000000
    outer loop
      vertex 11.709786 13.005034 5.000000
      vertex 11.709786 13.005034 116.000000
      vertex 8.750000 15.155445 116.000000
    endloop
  endfacet
  facet normal -0.587785 -0.809017 -0.000000
    outer loop
      vertex 8.750000 15.155445 5.000000
      vertex 11.709786 13.005034 5.000000
      vertex 8.750000 15.155445 116.000000
    endloop
  endfacet
  facet normal -0.406736 -0.913546 -0.000000
    outer loop
      vertex 8.750000 15.155445 5.000000
      vertex 8.750000 15.155445 116.000000
      vertex 5.407797 16.643489 116.000000
    endloop
  endfacet
  facet normal -0.406736 -0.913546 -0.000000
    outer loop
      vertex 5.407797 16.643489 5.000000
      vertex 8.750000 15.155445 5.000000
      vertex 5.407797 16.643489 116.000000
    endloop
  endfacet
  facet normal -0.207912 -0.978148 -0.000000
    outer loop
      vertex 5.407797 16.643489 5.000000
      vertex 5.407797 16.643489 116.000000
      vertex 1.829248 17.404133 116.000000
    endloop
  endfacet
  facet normal -0.207912 -0.978148 -0.000000
    outer loop
      vertex 1.829248 17.404133 5.000000
      vertex 5.407797 16.643489 5.000000
      vertex 1.829248 17.404133 116.000000
    endloop
  endfacet
  facet normal 0.000000 -1.000000 0.000000
    outer loop
      vertex 1.829248 17.404133 5.000000
      vertex 1.829248 17.404133 116.000000
      vertex -1.829248 17.404133 116.000000
    endloop
  endfacet
  facet normal -0.000000 -1.000000 -0.000000
    outer loop
      vertex -1.829248 17.404133 5.000000
      vertex 1.829248 17.404133 5.000000
      vertex -1.829248 17.404133 116.000000
    endloop
  endfacet
  facet normal 0.207912 -0.978148 0.000000
    outer loop
      vertex -1.829248 17.404133 5.000000
      vertex -1.829248 17.404133 116.000000
      vertex -5.407797 16.643489 116.000000
    endloop
  endfacet
  facet normal 0.207912 -0.978148 0.000000
    outer loop
      vertex -5.407797 16.643489 5.000000
      vertex -1.829248 17.404133 5.000000
      vertex -5.407797 16.643489 116.000000
    endloop
  endfacet
  facet normal 0.406736 -0.913546 0.000000
    outer loop
      vertex -5.407797 16.643489 5.000000
      vertex -5.407797 16.643489 116.000000
      vertex -8.750000 15.155445 116.000000
    endloop
  endfacet
  facet normal 0.406736 -0.913546 0.000000
    outer loop
      vertex -8.750000 15.155445 5.000000
      vertex -5.407797 16.643489 5.000000
      vertex -8.750000 15.155445 116.000000
    endloop
  endfacet
  facet normal 0.587785 -0.809017 0.000000
    outer loop
      vertex -8.750000 15.155445 5.000000
      vertex -8.750000 15.155445 116.000000
      vertex -11.709786 13.005034 116.000000
    endloop
  endfacet
  facet normal 0.587785 -0.809017 0.000000
    outer loop
      vertex -11.709786 13.005034 5.000000
      vertex -8.750000 15.155445 5.000000
      vertex -11.709786 13.005034 116.000000
    endloop
  endfacet
  facet normal 0.743145 -0.669131 0.000000
    outer loop
      vertex -11.709786 13.005034 5.000000
      vertex -11.709786 13.005034 116.000000
      vertex -14.157797 10.286242 116.000000
    endloop
  endfacet
  facet normal 0.743145 -0.669131 0.000000
    outer loop
      vertex -14.157797 10.286242 5.000000
      vertex -11.709786 13.005034 5.000000
      vertex -14.157797 10.286242 116.000000
    endloop
  endfacet
endsolid OpenSCAD_Model
