solid Default
  facet normal -1.000000e+00 0.000000e+00 0.000000e+00
    outer loop
      vertex -2.400000e+01 -2.400000e+01 0.000000e+00
      vertex -2.400000e+01 -2.400000e+01 1.600000e+01
      vertex -2.400000e+01 -8.000000e+00 3.200000e+00
    endloop
  endfacet
  facet normal -1.000000e+00 0.000000e+00 0.000000e+00
    outer loop
      vertex -2.400000e+01 -2.400000e+01 0.000000e+00
      vertex -2.400000e+01 -8.000000e+00 3.200000e+00
      vertex -2.400000e+01 2.400000e+01 0.000000e+00
    endloop
  endfacet
  facet normal -1.000000e+00 0.000000e+00 0.000000e+00
    outer loop
      vertex -2.400000e+01 8.000000e+00 1.600000e+01
      vertex -2.400000e+01 2.400000e+01 0.000000e+00
      vertex -2.400000e+01 8.000000e+00 3.200000e+00
    endloop
  endfacet
  facet normal -1.000000e+00 0.000000e+00 0.000000e+00
    outer loop
      vertex -2.400000e+01 -8.000000e+00 3.200000e+00
      vertex -2.400000e+01 8.000000e+00 3.200000e+00
      vertex -2.400000e+01 2.400000e+01 0.000000e+00
    endloop
  endfacet
  facet normal -1.000000e+00 0.000000e+00 0.000000e+00
    outer loop
      vertex -2.400000e+01 2.400000e+01 0.000000e+00
      vertex -2.400000e+01 8.000000e+00 1.600000e+01
      vertex -2.400000e+01 2.400000e+01 1.600000e+01
    endloop
  endfacet
  facet normal -1.000000e+00 0.000000e+00 0.000000e+00
    outer loop
      vertex -2.400000e+01 -8.000000e+00 3.200000e+00
      vertex -2.400000e+01 -2.400000e+01 1.600000e+01
      vertex -2.400000e+01 -8.000000e+00 1.600000e+01
    endloop
  endfacet
  facet normal 0.000000e+00 -1.000000e+00 0.000000e+00
    outer loop
      vertex 8.000000e+00 -2.400000e+01 3.200000e+00
      vertex -2.400000e+01 -2.400000e+01 0.000000e+00
      vertex 2.400000e+01 -2.400000e+01 0.000000e+00
    endloop
  endfacet
  facet normal 0.000000e+00 -1.000000e+00 0.000000e+00
    outer loop
      vertex -8.000000e+00 -2.400000e+01 3.200000e+00
      vertex -8.000000e+00 -2.400000e+01 1.600000e+01
      vertex -2.400000e+01 -2.400000e+01 1.600000e+01
    endloop
  endfacet
  facet normal 0.000000e+00 -1.000000e+00 0.000000e+00
    outer loop
      vertex 2.400000e+01 -2.400000e+01 1.600000e+01
      vertex 8.000000e+00 -2.400000e+01 1.600000e+01
      vertex 2.400000e+01 -2.400000e+01 0.000000e+00
    endloop
  endfacet
  facet normal 0.000000e+00 -1.000000e+00 0.000000e+00
    outer loop
      vertex -8.000000e+00 -2.400000e+01 3.200000e+00
      vertex -2.400000e+01 -2.400000e+01 0.000000e+00
      vertex 8.000000e+00 -2.400000e+01 3.200000e+00
    endloop
  endfacet
  facet normal 0.000000e+00 -1.000000e+00 0.000000e+00
    outer loop
      vertex -2.400000e+01 -2.400000e+01 1.600000e+01
      vertex -2.400000e+01 -2.400000e+01 0.000000e+00
      vertex -8.000000e+00 -2.400000e+01 3.200000e+00
    endloop
  endfacet
  facet normal 0.000000e+00 -1.000000e+00 0.000000e+00
    outer loop
      vertex 8.000000e+00 -2.400000e+01 1.600000e+01
      vertex 8.000000e+00 -2.400000e+01 3.200000e+00
      vertex 2.400000e+01 -2.400000e+01 0.000000e+00
    endloop
  endfacet
  facet normal -0.000000e+00 -0.000000e+00 -1.000000e+00
    outer loop
      vertex -2.400000e+01 -2.400000e+01 0.000000e+00
      vertex -2.400000e+01 2.400000e+01 0.000000e+00
      vertex 2.400000e+01 -2.400000e+01 0.000000e+00
    endloop
  endfacet
  facet normal 0.000000e+00 0.000000e+00 -1.000000e+00
    outer loop
      vertex 2.400000e+01 -2.400000e+01 0.000000e+00
      vertex -2.400000e+01 2.400000e+01 0.000000e+00
      vertex 2.400000e+01 2.400000e+01 0.000000e+00
    endloop
  endfacet
  facet normal 0.000000e+00 1.000000e+00 0.000000e+00
    outer loop
      vertex -2.400000e+01 2.400000e+01 0.000000e+00
      vertex -2.400000e+01 2.400000e+01 1.600000e+01
      vertex -8.000000e+00 2.400000e+01 3.200000e+00
    endloop
  endfacet
  facet normal 0.000000e+00 1.000000e+00 0.000000e+00
    outer loop
      vertex -2.400000e+01 2.400000e+01 0.000000e+00
      vertex -8.000000e+00 2.400000e+01 3.200000e+00
      vertex 2.400000e+01 2.400000e+01 0.000000e+00
    endloop
  endfacet
  facet normal 0.000000e+00 1.000000e+00 0.000000e+00
    outer loop
      vertex 8.000000e+00 2.400000e+01 1.600000e+01
      vertex 2.400000e+01 2.400000e+01 0.000000e+00
      vertex 8.000000e+00 2.400000e+01 3.200000e+00
    endloop
  endfacet
  facet normal 0.000000e+00 1.000000e+00 0.000000e+00
    outer loop
      vertex -8.000000e+00 2.400000e+01 3.200000e+00
      vertex 8.000000e+00 2.400000e+01 3.200000e+00
      vertex 2.400000e+01 2.400000e+01 0.000000e+00
    endloop
  endfacet
  facet normal 0.000000e+00 1.000000e+00 0.000000e+00
    outer loop
      vertex 2.400000e+01 2.400000e+01 0.000000e+00
      vertex 8.000000e+00 2.400000e+01 1.600000e+01
      vertex 2.400000e+01 2.400000e+01 1.600000e+01
    endloop
  endfacet
  facet normal 0.000000e+00 1.000000e+00 0.000000e+00
    outer loop
      vertex -8.000000e+00 2.400000e+01 3.200000e+00
      vertex -2.400000e+01 2.400000e+01 1.600000e+01
      vertex -8.000000e+00 2.400000e+01 1.600000e+01
    endloop
  endfacet
  facet normal 0.000000e+00 0.000000e+00 1.000000e+00
    outer loop
      vertex -2.400000e+01 2.400000e+01 1.600000e+01
      vertex -2.400000e+01 8.000000e+00 1.600000e+01
      vertex -8.000000e+00 8.000000e+00 1.600000e+01
    endloop
  endfacet
  facet normal 0.000000e+00 0.000000e+00 1.000000e+00
    outer loop
      vertex -8.000000e+00 2.400000e+01 1.600000e+01
      vertex -2.400000e+01 2.400000e+01 1.600000e+01
      vertex -8.000000e+00 8.000000e+00 1.600000e+01
    endloop
  endfacet
  facet normal 0.000000e+00 -1.000000e+00 0.000000e+00
    outer loop
      vertex -2.400000e+01 8.000000e+00 1.600000e+01
      vertex -2.400000e+01 8.000000e+00 3.200000e+00
      vertex -8.000000e+00 8.000000e+00 3.200000e+00
    endloop
  endfacet
  facet normal 0.000000e+00 -1.000000e+00 0.000000e+00
    outer loop
      vertex -8.000000e+00 8.000000e+00 1.600000e+01
      vertex -2.400000e+01 8.000000e+00 1.600000e+01
      vertex -8.000000e+00 8.000000e+00 3.200000e+00
    endloop
  endfacet
  facet normal 0.000000e+00 0.000000e+00 1.000000e+00
    outer loop
      vertex -2.400000e+01 8.000000e+00 3.200000e+00
      vertex -2.400000e+01 -8.000000e+00 3.200000e+00
      vertex -8.000000e+00 -8.000000e+00 3.200000e+00
    endloop
  endfacet
  facet normal 0.000000e+00 0.000000e+00 1.000000e+00
    outer loop
      vertex 8.000000e+00 -8.000000e+00 3.200000e+00
      vertex -2.400000e+01 8.000000e+00 3.200000e+00
      vertex -8.000000e+00 -8.000000e+00 3.200000e+00
    endloop
  endfacet
  facet normal 0.000000e+00 0.000000e+00 1.000000e+00
    outer loop
      vertex -8.000000e+00 -2.400000e+01 3.200000e+00
      vertex 8.000000e+00 -2.400000e+01 3.200000e+00
      vertex -8.000000e+00 -8.000000e+00 3.200000e+00
    endloop
  endfacet
  facet normal 0.000000e+00 0.000000e+00 1.000000e+00
    outer loop
      vertex 8.000000e+00 -2.400000e+01 3.200000e+00
      vertex 8.000000e+00 -8.000000e+00 3.200000e+00
      vertex -8.000000e+00 -8.000000e+00 3.200000e+00
    endloop
  endfacet
  facet normal 0.000000e+00 0.000000e+00 1.000000e+00
    outer loop
      vertex 8.000000e+00 -8.000000e+00 3.200000e+00
      vertex 2.400000e+01 -8.000000e+00 3.200000e+00
      vertex -2.400000e+01 8.000000e+00 3.200000e+00
    endloop
  endfacet
  facet normal 0.000000e+00 0.000000e+00 1.000000e+00
    outer loop
      vertex 2.400000e+01 -8.000000e+00 3.200000e+00
      vertex 8.000000e+00 8.000000e+00 3.200000e+00
      vertex -8.000000e+00 8.000000e+00 3.200000e+00
    endloop
  endfacet
  facet normal 0.000000e+00 0.000000e+00 1.000000e+00
    outer loop
      vertex 2.400000e+01 -8.000000e+00 3.200000e+00
      vertex 2.400000e+01 8.000000e+00 3.200000e+00
      vertex 8.000000e+00 8.000000e+00 3.200000e+00
    endloop
  endfacet
  facet normal 0.000000e+00 0.000000e+00 1.000000e+00
    outer loop
      vertex 2.400000e+01 -8.000000e+00 3.200000e+00
      vertex -8.000000e+00 8.000000e+00 3.200000e+00
      vertex -2.400000e+01 8.000000e+00 3.200000e+00
    endloop
  endfacet
  facet normal 0.000000e+00 0.000000e+00 1.000000e+00
    outer loop
      vertex 8.000000e+00 8.000000e+00 3.200000e+00
      vertex 8.000000e+00 2.400000e+01 3.200000e+00
      vertex -8.000000e+00 8.000000e+00 3.200000e+00
    endloop
  endfacet
  facet normal 0.000000e+00 0.000000e+00 1.000000e+00
    outer loop
      vertex -8.000000e+00 2.400000e+01 3.200000e+00
      vertex -8.000000e+00 8.000000e+00 3.200000e+00
      vertex 8.000000e+00 2.400000e+01 3.200000e+00
    endloop
  endfacet
  facet normal 0.000000e+00 1.000000e+00 0.000000e+00
    outer loop
      vertex -2.400000e+01 -8.000000e+00 3.200000e+00
      vertex -2.400000e+01 -8.000000e+00 1.600000e+01
      vertex -8.000000e+00 -8.000000e+00 3.200000e+00
    endloop
  endfacet
  facet normal 0.000000e+00 1.000000e+00 0.000000e+00
    outer loop
      vertex -8.000000e+00 -8.000000e+00 3.200000e+00
      vertex -2.400000e+01 -8.000000e+00 1.600000e+01
      vertex -8.000000e+00 -8.000000e+00 1.600000e+01
    endloop
  endfacet
  facet normal 0.000000e+00 0.000000e+00 1.000000e+00
    outer loop
      vertex -2.400000e+01 -8.000000e+00 1.600000e+01
      vertex -2.400000e+01 -2.400000e+01 1.600000e+01
      vertex -8.000000e+00 -2.400000e+01 1.600000e+01
    endloop
  endfacet
  facet normal 0.000000e+00 0.000000e+00 1.000000e+00
    outer loop
      vertex -8.000000e+00 -8.000000e+00 1.600000e+01
      vertex -2.400000e+01 -8.000000e+00 1.600000e+01
      vertex -8.000000e+00 -2.400000e+01 1.600000e+01
    endloop
  endfacet
  facet normal 1.000000e+00 0.000000e+00 0.000000e+00
    outer loop
      vertex -8.000000e+00 -2.400000e+01 1.600000e+01
      vertex -8.000000e+00 -2.400000e+01 3.200000e+00
      vertex -8.000000e+00 -8.000000e+00 3.200000e+00
    endloop
  endfacet
  facet normal 1.000000e+00 0.000000e+00 0.000000e+00
    outer loop
      vertex -8.000000e+00 -8.000000e+00 1.600000e+01
      vertex -8.000000e+00 -2.400000e+01 1.600000e+01
      vertex -8.000000e+00 -8.000000e+00 3.200000e+00
    endloop
  endfacet
  facet normal -1.000000e+00 -0.000000e+00 -0.000000e+00
    outer loop
      vertex 8.000000e+00 -2.400000e+01 3.200000e+00
      vertex 8.000000e+00 -2.400000e+01 1.600000e+01
      vertex 8.000000e+00 -8.000000e+00 3.200000e+00
    endloop
  endfacet
  facet normal -1.000000e+00 0.000000e+00 0.000000e+00
    outer loop
      vertex 8.000000e+00 -8.000000e+00 3.200000e+00
      vertex 8.000000e+00 -2.400000e+01 1.600000e+01
      vertex 8.000000e+00 -8.000000e+00 1.600000e+01
    endloop
  endfacet
  facet normal 0.000000e+00 0.000000e+00 1.000000e+00
    outer loop
      vertex 8.000000e+00 -8.000000e+00 1.600000e+01
      vertex 8.000000e+00 -2.400000e+01 1.600000e+01
      vertex 2.400000e+01 -2.400000e+01 1.600000e+01
    endloop
  endfacet
  facet normal 0.000000e+00 0.000000e+00 1.000000e+00
    outer loop
      vertex 2.400000e+01 -8.000000e+00 1.600000e+01
      vertex 8.000000e+00 -8.000000e+00 1.600000e+01
      vertex 2.400000e+01 -2.400000e+01 1.600000e+01
    endloop
  endfacet
  facet normal 1.000000e+00 0.000000e+00 0.000000e+00
    outer loop
      vertex 2.400000e+01 8.000000e+00 3.200000e+00
      vertex 2.400000e+01 -2.400000e+01 0.000000e+00
      vertex 2.400000e+01 2.400000e+01 0.000000e+00
    endloop
  endfacet
  facet normal 1.000000e+00 0.000000e+00 0.000000e+00
    outer loop
      vertex 2.400000e+01 -8.000000e+00 3.200000e+00
      vertex 2.400000e+01 -8.000000e+00 1.600000e+01
      vertex 2.400000e+01 -2.400000e+01 1.600000e+01
    endloop
  endfacet
  facet normal 1.000000e+00 0.000000e+00 0.000000e+00
    outer loop
      vertex 2.400000e+01 2.400000e+01 1.600000e+01
      vertex 2.400000e+01 8.000000e+00 1.600000e+01
      vertex 2.400000e+01 2.400000e+01 0.000000e+00
    endloop
  endfacet
  facet normal 1.000000e+00 0.000000e+00 0.000000e+00
    outer loop
      vertex 2.400000e+01 -8.000000e+00 3.200000e+00
      vertex 2.400000e+01 -2.400000e+01 0.000000e+00
      vertex 2.400000e+01 8.000000e+00 3.200000e+00
    endloop
  endfacet
  facet normal 1.000000e+00 0.000000e+00 0.000000e+00
    outer loop
      vertex 2.400000e+01 -2.400000e+01 1.600000e+01
      vertex 2.400000e+01 -2.400000e+01 0.000000e+00
      vertex 2.400000e+01 -8.000000e+00 3.200000e+00
    endloop
  endfacet
  facet normal 1.000000e+00 0.000000e+00 0.000000e+00
    outer loop
      vertex 2.400000e+01 8.000000e+00 1.600000e+01
      vertex 2.400000e+01 8.000000e+00 3.200000e+00
      vertex 2.400000e+01 2.400000e+01 0.000000e+00
    endloop
  endfacet
  facet normal 0.000000e+00 0.000000e+00 1.000000e+00
    outer loop
      vertex 8.000000e+00 2.400000e+01 1.600000e+01
      vertex 8.000000e+00 8.000000e+00 1.600000e+01
      vertex 2.400000e+01 8.000000e+00 1.600000e+01
    endloop
  endfacet
  facet normal 0.000000e+00 0.000000e+00 1.000000e+00
    outer loop
      vertex 2.400000e+01 2.400000e+01 1.600000e+01
      vertex 8.000000e+00 2.400000e+01 1.600000e+01
      vertex 2.400000e+01 8.000000e+00 1.600000e+01
    endloop
  endfacet
  facet normal -1.000000e+00 -0.000000e+00 -0.000000e+00
    outer loop
      vertex 8.000000e+00 8.000000e+00 3.200000e+00
      vertex 8.000000e+00 8.000000e+00 1.600000e+01
      vertex 8.000000e+00 2.400000e+01 3.200000e+00
    endloop
  endfacet
  facet normal -1.000000e+00 0.000000e+00 0.000000e+00
    outer loop
      vertex 8.000000e+00 2.400000e+01 3.200000e+00
      vertex 8.000000e+00 8.000000e+00 1.600000e+01
      vertex 8.000000e+00 2.400000e+01 1.600000e+01
    endloop
  endfacet
  facet normal 1.000000e+00 0.000000e+00 0.000000e+00
    outer loop
      vertex -8.000000e+00 8.000000e+00 1.600000e+01
      vertex -8.000000e+00 8.000000e+00 3.200000e+00
      vertex -8.000000e+00 2.400000e+01 3.200000e+00
    endloop
  endfacet
  facet normal 1.000000e+00 0.000000e+00 0.000000e+00
    outer loop
      vertex -8.000000e+00 2.400000e+01 1.600000e+01
      vertex -8.000000e+00 8.000000e+00 1.600000e+01
      vertex -8.000000e+00 2.400000e+01 3.200000e+00
    endloop
  endfacet
  facet normal 0.000000e+00 -1.000000e+00 0.000000e+00
    outer loop
      vertex 8.000000e+00 8.000000e+00 1.600000e+01
      vertex 8.000000e+00 8.000000e+00 3.200000e+00
      vertex 2.400000e+01 8.000000e+00 3.200000e+00
    endloop
  endfacet
  facet normal 0.000000e+00 -1.000000e+00 0.000000e+00
    outer loop
      vertex 2.400000e+01 8.000000e+00 1.600000e+01
      vertex 8.000000e+00 8.000000e+00 1.600000e+01
      vertex 2.400000e+01 8.000000e+00 3.200000e+00
    endloop
  endfacet
  facet normal 0.000000e+00 1.000000e+00 0.000000e+00
    outer loop
      vertex 8.000000e+00 -8.000000e+00 3.200000e+00
      vertex 8.000000e+00 -8.000000e+00 1.600000e+01
      vertex 2.400000e+01 -8.000000e+00 3.200000e+00
    endloop
  endfacet
  facet normal 0.000000e+00 1.000000e+00 0.000000e+00
    outer loop
      vertex 2.400000e+01 -8.000000e+00 3.200000e+00
      vertex 8.000000e+00 -8.000000e+00 1.600000e+01
      vertex 2.400000e+01 -8.000000e+00 1.600000e+01
    endloop
  endfacet
endsolid Default
